<?xml version="1.0" encoding="utf-8"?>
<!-- Generator: Adobe Illustrator 27.6.1, SVG Export Plug-In . SVG Version: 6.00 Build 0)  -->
<svg version="1.1" id="Layer_1" xmlns="http://www.w3.org/2000/svg" xmlns:xlink="http://www.w3.org/1999/xlink" x="0px" y="0px"
	 viewBox="0 0 612 160.1" style="enable-background:new 0 0 612 160.1;" xml:space="preserve">
<style type="text/css">
	.st0{fill:#2B2B2B;}
</style>
<g>
	<g>
		<g>
			<polygon class="st0" points="349.28,94.07 348.76,92.6 340.74,69.73 340.68,69.58 337.51,60.53 336.84,58.64 333.97,58.64 
				326.65,58.64 310.89,103.61 322.37,103.61 325.51,94.65 327.45,88.22 320.65,82.96 329.09,82.98 331.68,74.45 334.36,83.13 
				342.74,83.13 335.93,88.34 337.21,92.46 340.94,103.1 341.12,103.61 343.47,103.61 350.01,103.61 352.58,103.61 			"/>
			<g>
				<path class="st0" d="M378.94,103.63h-6.5V85.15c0-1.79-0.62-3.31-1.87-4.57s-2.74-1.89-4.49-1.89c-1.77,0-3.27,0.63-4.52,1.89
					c-1.25,1.26-1.87,2.78-1.87,4.57v18.48h-6.5V72.49h6.5v1.27c2.01-1.13,4.14-1.67,6.39-1.64c3.53,0,6.56,1.28,9.07,3.84
					c2.53,2.54,3.8,5.61,3.8,9.2V103.63L378.94,103.63z"/>
				<path class="st0" d="M385.29,99.34c-3.09-3.12-4.63-6.88-4.63-11.28c0-4.38,1.54-8.13,4.63-11.26
					c3.09-3.12,6.81-4.68,11.16-4.68c4.33,0,8.04,1.56,11.13,4.68c3.09,3.12,4.63,6.87,4.63,11.26c0,4.4-1.54,8.16-4.63,11.28
					c-3.09,3.12-6.8,4.68-11.13,4.68C392.09,104.03,388.37,102.47,385.29,99.34z M389.89,81.43c-1.82,1.84-2.73,4.05-2.73,6.63
					c0,2.6,0.91,4.81,2.73,6.66c1.8,1.82,3.99,2.74,6.56,2.74c2.57,0,4.75-0.91,6.56-2.74c1.8-1.84,2.71-4.06,2.71-6.66
					c0-2.6-0.9-4.8-2.71-6.63c-1.81-1.82-3.99-2.74-6.56-2.74C393.88,78.69,391.69,79.61,389.89,81.43z"/>
				<path class="st0" d="M428.41,104.06c-4.35,0-8.07-1.57-11.16-4.71c-3.09-3.12-4.63-6.87-4.63-11.26c0-4.38,1.54-8.13,4.63-11.26
					c3.09-3.14,6.81-4.71,11.16-4.71c3.87-0.06,6.96,0.88,9.26,2.79V57.96h6.5v45.67h-6.5v-2.37
					C435.87,103.13,432.78,104.06,428.41,104.06z M428.41,78.72c-2.57,0-4.76,0.91-6.59,2.74c-1.81,1.82-2.71,4.03-2.71,6.63
					s0.9,4.81,2.71,6.63c1.82,1.82,4.02,2.74,6.59,2.74c2.57,0,4.75-0.91,6.56-2.74c1.8-1.82,2.71-4.03,2.71-6.63
					c0-2.6-0.9-4.8-2.71-6.63C433.16,79.64,430.97,78.72,428.41,78.72z"/>
				<path class="st0" d="M460.76,72.12c4.33,0,8.04,1.56,11.13,4.68c3.09,3.12,4.63,6.87,4.63,11.26l-0.06,2.03h-24.78
					c0.24,1.54,1.17,3.17,2.79,4.88c1.77,1.66,3.86,2.48,6.28,2.48c1.73,0,3.35-0.48,4.86-1.44c1.43-0.87,2.7-2.38,3.8-4.54l6,2.62
					c-1.67,3.38-3.76,5.87-6.25,7.45c-2.55,1.66-5.35,2.48-8.4,2.48c-4.33,0-8.05-1.56-11.13-4.68c-3.11-3.12-4.66-6.88-4.66-11.28
					c0-4.38,1.55-8.13,4.66-11.26C452.71,73.68,456.42,72.12,460.76,72.12z M468.9,83.52c-0.46-0.96-1.38-1.97-2.73-3.05
					c-1.62-1.18-3.42-1.78-5.41-1.78c-2.01,0-3.81,0.59-5.41,1.78c-1.32,1.09-2.22,2.11-2.71,3.05H468.9z M466.42,54.72l5.33,3.81
					l-8.12,11.68l-5.33-3.81L466.42,54.72z"/>
			</g>
		</g>
	</g>
	<g>
		<path class="st0" d="M170,104.66v-3.77l15.07-15.19c4.31-4.31,6.46-8.01,6.46-11.06c0-5.32-3.83-8.49-8.43-8.49
			c-4.31,0-7.42,1.97-9.39,5.92l-3.53-2.09c2.63-5.2,7.42-7.89,12.92-7.89c3.35,0,6.28,1.14,8.79,3.41
			c2.57,2.21,3.83,5.26,3.83,9.15c0,4.84-2.81,9.09-7.77,14.05l-11.96,11.9h20.63v4.07H170z"/>
		<path class="st0" d="M217.25,105.38c-5.02,0-8.91-1.97-11.72-5.86c-2.75-3.95-4.13-9.21-4.13-15.79s1.38-11.84,4.13-15.73
			c2.81-3.95,6.7-5.92,11.72-5.92c5.02,0,8.91,1.97,11.66,5.92c2.81,3.89,4.19,9.15,4.19,15.73s-1.38,11.84-4.19,15.79
			C226.16,103.41,222.27,105.38,217.25,105.38z M217.25,101.32c3.65,0,6.52-1.55,8.55-4.6c2.09-3.05,3.11-7.42,3.11-12.98
			s-1.02-9.93-3.11-12.98c-2.03-3.05-4.9-4.6-8.55-4.6c-3.65,0-6.52,1.55-8.61,4.6c-2.03,3.05-3.05,7.42-3.05,12.98
			s1.02,9.93,3.05,12.98C210.73,99.76,213.6,101.32,217.25,101.32z"/>
		<path class="st0" d="M237.88,104.66v-3.77l15.07-15.19c4.31-4.31,6.46-8.01,6.46-11.06c0-5.32-3.83-8.49-8.43-8.49
			c-4.31,0-7.42,1.97-9.39,5.92l-3.53-2.09c2.63-5.2,7.42-7.89,12.92-7.89c3.35,0,6.28,1.14,8.79,3.41
			c2.57,2.21,3.83,5.26,3.83,9.15c0,4.84-2.81,9.09-7.77,14.05l-11.96,11.9h20.63v4.07H237.88z"/>
		<path class="st0" d="M298.88,92.35v3.95h-5.38v8.37h-4.19v-8.37h-22.13v-3.95l15.55-29.54h4.6l-15.55,29.54h17.52v-12.8h4.19v12.8
			H298.88z"/>
	</g>
	<g>
		<path class="st0" d="M148.47,78.81c3.59,0,6.66,1.27,9.19,3.8s3.8,5.6,3.8,9.19c0,3.59-1.27,6.66-3.8,9.19s-5.6,3.8-9.19,3.8
			c-3.61,0-6.67-1.26-9.2-3.79s-3.79-5.59-3.79-9.2c0-3.59,1.26-6.66,3.79-9.19S144.86,78.81,148.47,78.81z M148.46,81.37
			c-2.89,0-5.35,1.01-7.38,3.04c-2.03,2.02-3.04,4.48-3.04,7.38c0,2.89,1.01,5.36,3.04,7.39c2.03,2.04,4.49,3.05,7.38,3.05
			c2.88,0,5.34-1.02,7.38-3.05c2.04-2.03,3.06-4.5,3.06-7.39c0-2.89-1.02-5.35-3.05-7.38C153.81,82.38,151.35,81.37,148.46,81.37z
			 M151.57,93.7l2.75,0.93c-0.91,2.92-2.81,4.38-5.69,4.38c-2.02,0-3.62-0.65-4.79-1.95c-1.17-1.3-1.76-3.02-1.76-5.17
			c0-2.23,0.58-4,1.75-5.33c1.17-1.33,2.78-1.99,4.83-1.99c2.8,0,4.68,1.38,5.66,4.14l-2.75,0.66c-0.59-1.58-1.59-2.37-3.01-2.37
			c-2.33,0-3.5,1.6-3.5,4.8c0,1.47,0.29,2.64,0.87,3.52c0.58,0.88,1.41,1.31,2.49,1.31C149.97,96.61,151.02,95.64,151.57,93.7z"/>
	</g>
</g>
</svg>
