<?xml version="1.0" encoding="utf-8"?>
<!-- Generator: Adobe Illustrator 27.6.1, SVG Export Plug-In . SVG Version: 6.00 Build 0)  -->
<svg version="1.1" xmlns="http://www.w3.org/2000/svg" xmlns:xlink="http://www.w3.org/1999/xlink" x="0px" y="0px"
	 viewBox="0 0 3800 3000" style="enable-background:new 0 0 3800 3000;" xml:space="preserve">
<style type="text/css">
	.st0{fill:#019C63;}
	.st1{fill:none;}
	.st2{fill:#231F20;}
	.st3{fill:#FFFFFF;}
	.st4{fill:#FEBEE1;}
	.st5{fill:#A4C7FF;}
	.st6{fill:#FCD800;}
	.st7{fill:#FD5001;}
</style>
<g id="Layer_1">
	<g>
		<g id="Graphics">
			<rect class="st0" width="3800" height="3000"/>
			<g>
				<polygon class="st1" points="656.4,2340.3 873.9,1986.6 577.7,1848.4 360.2,2202.1 				"/>
				<polygon class="st1" points="1174.8,2127 878.5,1988.7 661,2342.4 957.2,2480.7 				"/>
				<polygon class="st1" points="1098.7,1630.7 881.1,1984.4 1177.4,2122.7 1394.9,1769 				"/>
				<polygon class="st1" points="1695.7,1909.3 1399.5,1771.1 1182,2124.8 1478.2,2263 				"/>
				<polygon class="st1" points="876.6,1982.3 1094.1,1628.6 797.8,1490.4 580.3,1844.1 				"/>
				<polygon class="st1" points="719.8,987.8 1016.1,1126 1233.6,772.3 937.3,634.1 				"/>
				<polygon class="st1" points="795.9,1484 1013.4,1130.3 717.2,992 499.6,1345.7 				"/>
				<polygon class="st1" points="2962.4,1118.2 2744.9,1471.9 3041.2,1610.2 3258.7,1256.5 				"/>
				<polygon class="st1" points="3119.2,2112.8 2822.9,1974.6 2605.4,2328.3 2901.7,2466.5 				"/>
				<polygon class="st1" points="3043.1,1616.6 2825.6,1970.3 3121.8,2108.5 3339.3,1754.8 				"/>
				<polygon class="st1" points="1020.6,1128.1 1316.9,1266.3 1534.4,912.6 1238.1,774.4 				"/>
				<polygon class="st1" points="1996.6,2049.7 1700.3,1911.5 1482.8,2265.2 1779.1,2403.4 				"/>
				<polygon class="st1" points="1920.5,1553.5 1702.9,1907.2 1999.2,2045.4 2216.7,1691.7 				"/>
				<polygon class="st1" points="2818.4,1972.4 2522.1,1834.2 2304.6,2187.9 2600.9,2326.1 				"/>
				<polygon class="st1" points="2517.5,1832.1 2221.3,1693.8 2003.8,2047.5 2300,2185.8 				"/>
				<polygon class="st1" points="2740.3,1469.8 2957.9,1116.1 2661.6,977.9 2444.1,1331.6 				"/>
				<polygon class="st1" points="1615.1,1411 1318.8,1272.8 1101.3,1626.5 1397.6,1764.7 				"/>
				<polygon class="st1" points="1915.9,1551.4 1619.6,1413.1 1402.1,1766.8 1698.4,1905 				"/>
				<polygon class="st1" points="3178,758.1 2881.7,619.9 2664.2,973.6 2960.5,1111.8 				"/>
				<polygon class="st1" points="800.5,1486.1 1096.7,1624.3 1314.3,1270.6 1018,1132.4 				"/>
				<polygon class="st1" points="3182.6,760.2 2965.1,1113.9 3261.3,1252.2 3478.8,898.5 				"/>
				<polygon class="st1" points="3180.6,753.8 3398.2,400.1 3101.9,261.9 2884.4,615.6 				"/>
				<polygon class="st1" points="3038.5,1614.4 2742.3,1476.2 2524.7,1829.9 2821,1968.1 				"/>
				<polygon class="st1" points="1617.7,1406.7 1835.2,1053 1539,914.8 1321.4,1268.5 				"/>
				<polygon class="st1" points="1839.8,1055.1 1622.3,1408.8 1918.5,1547.1 2136.1,1193.4 				"/>
				<polygon class="st1" points="1842.4,1050.8 2138.7,1189.1 2356.2,835.4 2059.9,697.1 				"/>
				<polygon class="st1" points="2143.3,1191.2 2439.5,1329.4 2657,975.7 2360.8,837.5 				"/>
				<polygon class="st1" points="2436.9,1333.7 2140.6,1195.5 1923.1,1549.2 2219.4,1687.4 				"/>
				<polygon class="st1" points="2737.7,1474.1 2441.4,1335.9 2223.9,1689.6 2520.2,1827.8 				"/>
				<polygon class="st1" points="1541.6,910.5 1837.9,1048.7 2055.4,695 1759.1,556.8 				"/>
				<polygon class="st1" points="2001.1,2051.8 1783.6,2405.5 2079.9,2543.8 2297.4,2190.1 				"/>
				<polygon class="st1" points="2302,2192.2 2084.4,2545.9 2380.7,2684.1 2598.2,2330.4 				"/>
				<polygon class="st1" points="3097.3,259.8 2801.1,121.5 2583.6,475.2 2879.8,613.5 				"/>
				<polygon class="st1" points="2602.8,2332.5 2385.3,2686.2 2681.5,2824.5 2899,2470.8 				"/>
				<polygon class="st1" points="1563.5,2763.5 1859.7,2901.7 2077.2,2548 1781,2409.8 				"/>
				<polygon class="st1" points="1179.3,2129.1 961.8,2482.8 1258.1,2621 1475.6,2267.3 				"/>
				<polygon class="st1" points="1480.2,2269.4 1262.6,2623.2 1558.9,2761.4 1776.4,2407.7 				"/>
				<polygon class="st1" points="3422.7,2248.9 3640.2,1895.2 3343.9,1756.9 3126.4,2110.6 				"/>
				<polygon class="st1" points="3481.5,894.2 3699,540.5 3402.7,402.3 3185.2,756 				"/>
				<polygon class="st1" points="3562.1,1392.5 3779.7,1038.8 3483.4,900.6 3265.9,1254.3 				"/>
				<polygon class="st1" points="3503.3,2747.2 3720.8,2393.5 3424.6,2255.3 3207.1,2609 				"/>
				<polygon class="st1" points="3123.8,2114.9 2906.2,2468.6 3202.5,2606.8 3420,2253.2 				"/>
				<polygon class="st1" points="3045.7,1612.3 3342,1750.5 3559.5,1396.8 3263.2,1258.6 				"/>
				<polygon class="st1" points="741.7,2840.8 1037.9,2979 1255.4,2625.3 959.2,2487.1 				"/>
				<polygon class="st1" points="2686.1,2826.6 2982.3,2964.8 3199.9,2611.1 2903.6,2472.9 				"/>
				<polygon class="st1" points="1152.9,273.9 856.7,135.7 639.1,489.4 935.4,627.6 				"/>
				<polygon class="st1" points="1537,908.4 1754.6,554.7 1458.3,416.4 1240.8,770.1 				"/>
				<polygon class="st1" points="1236.2,768 1453.7,414.3 1157.5,276.1 940,629.8 				"/>
				<polygon class="st1" points="1974.7,196.7 1678.5,58.4 1460.9,412.1 1757.2,550.4 				"/>
				<polygon class="st1" points="2659.7,971.5 2877.2,617.8 2580.9,479.5 2363.4,833.2 				"/>
				<polygon class="st1" points="2058,690.7 2275.5,337 1979.3,198.8 1761.8,552.5 				"/>
				<polygon class="st1" points="2358.8,831.1 2576.4,477.4 2280.1,339.2 2062.6,692.9 				"/>
				<polygon class="st1" points="715.2,985.6 932.8,631.9 636.5,493.7 419,847.4 				"/>
				<polygon class="st1" points="793.3,1488.3 497,1350 279.5,1703.7 575.8,1842 				"/>
				<polygon class="st1" points="276.9,1708 59.3,2061.7 355.6,2199.9 573.1,1846.2 				"/>
				<polygon class="st1" points="357.5,2206.4 140,2560 436.3,2698.3 653.8,2344.6 				"/>
				<polygon class="st1" points="335.7,353.3 118.2,707 414.4,845.3 631.9,491.6 				"/>
				<polygon class="st1" points="658.3,2346.7 440.8,2700.4 737.1,2838.6 954.6,2484.9 				"/>
				<polygon class="st1" points="416.3,851.7 198.8,1205.4 495.1,1343.6 712.6,989.9 				"/>
				<path class="st2" d="M3798.9,126.4c0.3,0.2,0.7,0.2,1.1,0.2c0,0,0,0,0,0v-5.3L3625.5,40l23.8-38.7c0.3-0.4,0.4-0.9,0.4-1.3h-5.4
					L3621,37.9L3539.8,0h-8.4c0,0.9,0.5,1.8,1.4,2.3l85.5,39.9l-217.5,353.7l-296.3-138.2L3262.2,1.3c0.3-0.4,0.4-0.9,0.4-1.3h-5.4
					L3100,255.5l-296.3-138.2L2875,1.3c0.3-0.4,0.4-0.9,0.4-1.3h-5.4l-70.8,115.1L2552.4,0h-8.4c0,0.9,0.5,1.8,1.4,2.3l251.1,117.1
					L2579,473.1l-296.3-138.2L2487.9,1.3c0.3-0.4,0.4-0.9,0.4-1.3h-5.4l-204.6,332.7l-296.3-138.2L2100.7,1.3
					c0.3-0.4,0.4-0.9,0.4-1.3h-5.4l-118.3,192.4L1681.1,54.2l32.5-52.8c0.3-0.4,0.4-0.9,0.4-1.3h-5.4l-32,52L1565,0h-8.4
					c0,0.9,0.5,1.8,1.4,2.3l115.8,54L1456.4,410l-296.3-138.2L1326.4,1.3c0.3-0.4,0.4-0.9,0.4-1.3h-5.4l-165.8,269.7L859.3,131.4
					l80-130.1c0.3-0.4,0.4-0.9,0.4-1.3h-5.4l-79.5,129.3L577.6,0h-8.4c0,0.9,0.5,1.8,1.4,2.3l281.4,131.3L634.6,487.3L338.3,349
					L552.2,1.3c0.3-0.4,0.4-0.9,0.4-1.3h-5.4L333.7,346.9L37.5,208.7L165,1.3c0.3-0.4,0.4-0.9,0.4-1.3H160l-127,206.6L1.1,191.7
					c-0.3-0.2-0.7-0.2-1.1-0.2v5.3l30.3,14.1L0,260.1v7.3c0.8,0,1.7-0.4,2.1-1.2L34.9,213l296.3,138.2L113.6,704.9L1.1,652.4
					c-0.3-0.2-0.7-0.2-1.1-0.2v5.3l111,51.8L0,889.6v7.3c0.8,0,1.7-0.4,2.1-1.2l113.4-184.4l296.3,138.2l-217.5,353.7L1.1,1113.1
					c-0.3-0.2-0.7-0.2-1.1-0.2v5.3l191.6,89.4L0,1519.1v7.3c0.8,0,1.7-0.4,2.1-1.2l194.1-315.6l296.3,138.2l-217.5,353.7L1.1,1573.8
					c-0.3-0.2-0.7-0.2-1.1-0.2v5.3l272.3,127L54.8,2059.6l-53.7-25.1c-0.3-0.2-0.7-0.2-1.1-0.2v5.3l52.1,24.3L0,2148.6v7.3
					c0.8,0,1.7-0.4,2.1-1.2l54.6-88.7L353,2204.2l-217.5,353.7L1.1,2495.2c-0.3-0.2-0.7-0.2-1.1-0.2v5.3l132.8,62L0,2778.2v7.3
					c0.8,0,1.7-0.4,2.1-1.2l135.2-219.9l296.3,138.2l-182.1,296.1c-0.3,0.4-0.4,0.9-0.4,1.3h5.4l181.6-295.3l296.3,138.2
					l-95.8,155.8c-0.3,0.4-0.4,0.9-0.4,1.3h5.4l95.3-154.9l296.3,138.2l-9.5,15.4c-0.3,0.4-0.4,0.9-0.4,1.3h5.4l9-14.6l31.3,14.6
					h8.4c0-0.9-0.5-1.8-1.4-2.3l-35.6-16.6l217.5-353.7l296.3,138.2l-143.3,233c-0.3,0.4-0.4,0.9-0.4,1.3h5.4l142.8-232.2
					l296.3,138.2l-57,92.7c-0.3,0.4-0.4,0.9-0.4,1.3h5.4l56.5-91.8l196.8,91.8h8.4c0-0.9-0.5-1.8-1.4-2.3l-201.2-93.9l217.5-353.7
					l296.3,138.2l-190.8,310.3c-0.3,0.4-0.4,0.9-0.4,1.3h5.4l190.3-309.5l296.3,138.2l-104.5,169.9c-0.3,0.4-0.4,0.9-0.4,1.3h5.4
					l104-169.1l296.3,138.2l-18.2,29.6c-0.3,0.4-0.4,0.9-0.4,1.3h5.4l17.7-28.7l61.6,28.7h8.4c0-0.9-0.5-1.8-1.4-2.3l-65.9-30.8
					l217.5-353.7l296.3,138.2l-152,247.2c-0.3,0.4-0.4,0.9-0.4,1.3h5.4l151.5-246.4l293.7,137c0.3,0.2,0.7,0.2,1.1,0.2c0,0,0,0,0,0
					v-5.3l-292.1-136.3l217.5-353.7l73.5,34.3c0.3,0.2,0.7,0.2,1.1,0.2c0,0,0,0,0,0v-5.3l-72-33.6l72-117v-7.3
					c-0.8,0-1.7,0.4-2.1,1.2l-74.4,121L3427.2,2251l217.5-353.7l154.2,72c0.3,0.2,0.7,0.2,1.1,0.2c0,0,0,0,0,0v-5.3l-152.6-71.2
					l152.6-248.2v-7.3c-0.8,0-1.7,0.4-2.1,1.2l-155.1,252.1l-296.3-138.2l217.5-353.7l234.9,109.6c0.3,0.2,0.7,0.2,1.1,0.2
					c0,0,0,0,0,0v-5.3l-233.3-108.9l217.5-353.7l14.7,6.9c0.3,0.2,0.7,0.2,1.1,0.2c0,0,0,0,0,0v-5.3l-13.1-6.1l13.1-21.4v-7.3
					c-0.8,0-1.7,0.4-2.1,1.2l-15.6,25.3L3486,896.3l217.5-353.7l95.4,44.5c0.3,0.2,0.7,0.2,1.1,0.2c0,0,0,0,0,0v-5.3l-93.8-43.8
					l93.8-152.6v-7.3c-0.8,0-1.7,0.4-2.1,1.2l-96.2,156.5L3405.4,398l217.5-353.7L3798.9,126.4z M3101.9,261.9l296.3,138.2
					l-217.5,353.7l-296.3-138.2L3101.9,261.9z M2957.9,1116.1l-217.5,353.7l-296.3-138.2l217.5-353.7L2957.9,1116.1z M2664.2,973.6
					l217.5-353.7L3178,758.1l-217.5,353.7L2664.2,973.6z M1318.8,1272.8l296.3,138.2l-217.5,353.7l-296.3-138.2L1318.8,1272.8
					L1318.8,1272.8z M1096.7,1624.3l-296.3-138.2l217.5-353.7l296.3,138.2L1096.7,1624.3z M1619.6,1413.1l296.3,138.2L1698.4,1905
					l-296.3-138.2L1619.6,1413.1L1619.6,1413.1z M1622.3,1408.8l217.5-353.7l296.3,138.2l-217.5,353.7L1622.3,1408.8z
					 M2140.6,1195.5l296.3,138.2l-217.5,353.7l-296.3-138.2L2140.6,1195.5z M2441.4,1335.9l296.3,138.2l-217.5,353.7l-296.3-138.2
					L2441.4,1335.9L2441.4,1335.9z M2742.3,1476.2l296.3,138.2L2821,1968.1l-296.3-138.2L2742.3,1476.2z M2439.5,1329.4
					l-296.3-138.2l217.5-353.7L2657,975.7L2439.5,1329.4z M2138.7,1189.1l-296.3-138.2l217.5-353.7l296.3,138.2L2138.7,1189.1z
					 M1837.9,1048.7l-296.3-138.2l217.5-353.7L2055.4,695L1837.9,1048.7z M1835.2,1053l-217.5,353.7l-296.3-138.2L1539,914.8
					L1835.2,1053z M1316.9,1266.3l-296.3-138.2l217.5-353.7l296.3,138.2L1316.9,1266.3z M1016.1,1126L719.8,987.8l217.5-353.7
					l296.3,138.2L1016.1,1126L1016.1,1126z M1013.4,1130.3L795.9,1484l-296.3-138.2L717.2,992L1013.4,1130.3z M797.8,1490.4
					l296.3,138.2l-217.5,353.7l-296.3-138.2L797.8,1490.4L797.8,1490.4z M873.9,1986.6l-217.5,353.7l-296.3-138.2l217.5-353.7
					L873.9,1986.6z M878.5,1988.7l296.3,138.2l-217.5,353.7L661,2342.4L878.5,1988.7L878.5,1988.7z M881.1,1984.4l217.5-353.7
					l296.3,138.2l-217.5,353.7L881.1,1984.4L881.1,1984.4z M1399.5,1771.1l296.3,138.2L1478.2,2263L1182,2124.8L1399.5,1771.1z
					 M1700.3,1911.5l296.3,138.2l-217.5,353.7l-296.3-138.2L1700.3,1911.5z M1702.9,1907.2l217.5-353.7l296.3,138.2l-217.5,353.7
					L1702.9,1907.2z M2221.3,1693.8l296.3,138.2L2300,2185.8l-296.3-138.2L2221.3,1693.8z M2522.1,1834.2l296.3,138.2l-217.5,353.7
					l-296.3-138.2L2522.1,1834.2z M2822.9,1974.6l296.3,138.2l-217.5,353.7l-296.3-138.2L2822.9,1974.6z M2825.6,1970.3l217.5-353.7
					l296.3,138.2l-217.5,353.7L2825.6,1970.3z M3041.2,1610.2l-296.3-138.2l217.5-353.7l296.3,138.2L3041.2,1610.2z M2965.1,1113.9
					l217.5-353.7l296.3,138.2l-217.5,353.7L2965.1,1113.9z M2801.1,121.5l296.3,138.2l-217.5,353.7l-296.3-138.2L2801.1,121.5z
					 M2580.9,479.5l296.3,138.2l-217.5,353.7l-296.3-138.2L2580.9,479.5z M2280.1,339.2l296.3,138.2l-217.5,353.7l-296.3-138.2
					L2280.1,339.2z M1979.3,198.8L2275.5,337L2058,690.7l-296.3-138.2L1979.3,198.8z M1678.5,58.4l296.3,138.2l-217.5,353.7
					l-296.3-138.2L1678.5,58.4z M1458.3,416.4l296.3,138.2L1537,908.4l-296.3-138.2L1458.3,416.4L1458.3,416.4z M1157.5,276.1
					l296.3,138.2L1236.2,768L940,629.8L1157.5,276.1z M856.7,135.7l296.3,138.2L935.4,627.6L639.1,489.4L856.7,135.7L856.7,135.7z
					 M636.5,493.7l296.3,138.2L715.2,985.6L419,847.4L636.5,493.7z M118.2,707l217.5-353.7l296.3,138.2L414.4,845.3L118.2,707z
					 M198.8,1205.4l217.5-353.7l296.3,138.2l-217.5,353.7L198.8,1205.4z M497,1350l296.3,138.2L575.8,1842l-296.3-138.2L497,1350z
					 M59.3,2061.7L276.9,1708l296.3,138.2l-217.5,353.7L59.3,2061.7z M436.3,2698.3L140,2560l217.5-353.7l296.3,138.2L436.3,2698.3z
					 M737.1,2838.6l-296.3-138.2l217.5-353.7l296.3,138.2L737.1,2838.6z M1037.9,2979l-296.3-138.2l217.5-353.7l296.3,138.2
					L1037.9,2979z M1258.1,2621l-296.3-138.2l217.5-353.7l296.3,138.2L1258.1,2621L1258.1,2621z M1558.9,2761.4l-296.3-138.2
					l217.5-353.7l296.3,138.2L1558.9,2761.4L1558.9,2761.4z M1859.7,2901.7l-296.3-138.2l217.5-353.7l296.3,138.2L1859.7,2901.7z
					 M2079.9,2543.8l-296.3-138.2l217.5-353.7l296.3,138.2L2079.9,2543.8L2079.9,2543.8z M2380.7,2684.1l-296.3-138.2l217.5-353.7
					l296.3,138.2L2380.7,2684.1z M2681.5,2824.5l-296.3-138.2l217.5-353.7l296.3,138.2L2681.5,2824.5L2681.5,2824.5z M2982.3,2964.8
					l-296.3-138.2l217.5-353.7l296.3,138.2L2982.3,2964.8z M3202.5,2606.8l-296.3-138.2l217.5-353.7l296.3,138.2L3202.5,2606.8z
					 M3720.8,2393.5l-217.5,353.7L3207.1,2609l217.5-353.7L3720.8,2393.5z M3640.2,1895.2l-217.5,353.7l-296.3-138.2l217.5-353.7
					L3640.2,1895.2z M3342,1750.5l-296.3-138.2l217.5-353.7l296.3,138.2L3342,1750.5z M3779.7,1038.8l-217.5,353.7l-296.3-138.2
					l217.5-353.7L3779.7,1038.8z M3699,540.5l-217.5,353.7L3185.2,756l217.5-353.7L3699,540.5z"/>
				<path class="st2" d="M90.7,2997.7l-89.6-41.8c-0.3-0.2-0.7-0.2-1.1-0.2v5.3l83.7,39.1h8.4C92.1,2999.1,91.6,2998.2,90.7,2997.7z
					"/>
				<path class="st2" d="M3797.9,2897.8l-62.1,100.9c-0.3,0.4-0.4,0.9-0.4,1.3h5.4l59.1-96.1v-7.3
					C3799.2,2896.6,3798.3,2897,3797.9,2897.8z"/>
			</g>
			<g>
				<polygon class="st3" points="3599.1,1615.1 2895.7,2758.9 2788.7,2709 3492.1,1565.2 				"/>
				<path class="st2" d="M2895.7,2761.4c-0.4,0-0.7-0.1-1.1-0.2l-107-49.9c-0.7-0.3-1.1-0.9-1.4-1.6c-0.2-0.7-0.1-1.4,0.3-2.1
					L3490,1563.8c0.7-1.1,2.1-1.5,3.2-1l107,49.9c0.7,0.3,1.1,0.9,1.4,1.6c0.2,0.7,0.1,1.4-0.3,2.1l-703.4,1143.8
					C2897.4,2761,2896.6,2761.4,2895.7,2761.4z M2792.4,2707.9l102.3,47.8l700.7-1139.4l-102.3-47.8L2792.4,2707.9z"/>
			</g>
			<g>
				<polygon class="st3" points="2835.8,2856.2 2773.2,2958.1 2666.2,2908.2 2728.9,2806.3 				"/>
				<path class="st2" d="M2773.2,2960.6c-0.4,0-0.7-0.1-1.1-0.2l-107-49.9c-0.7-0.3-1.1-0.9-1.4-1.6c-0.2-0.7-0.1-1.4,0.3-2.1
					l62.7-101.9c0.7-1.1,2.1-1.5,3.2-1l107,49.9c0.7,0.3,1.1,0.9,1.4,1.6c0.2,0.7,0.1,1.4-0.3,2.1l-62.7,101.9
					C2774.8,2960.2,2774,2960.6,2773.2,2960.6z M2669.8,2907.1l102.3,47.8l60-97.6l-102.3-47.8L2669.8,2907.1z"/>
			</g>
			<g>
				<polygon class="st3" points="2895.7,2758.9 2835.8,2856.2 2728.9,2806.3 2788.7,2709 				"/>
				<path class="st2" d="M2835.8,2858.7c-0.4,0-0.7-0.1-1.1-0.2l-107-49.9c-0.7-0.3-1.1-0.9-1.4-1.6c-0.2-0.7-0.1-1.4,0.3-2.1
					l59.9-97.3c0.7-1.1,2.1-1.5,3.2-1l107,49.9c0.7,0.3,1.1,0.9,1.4,1.6c0.2,0.7,0.1,1.4-0.3,2.1l-59.9,97.3
					C2837.5,2858.3,2836.7,2858.7,2835.8,2858.7z M2732.5,2805.2l102.3,47.8l57.2-93l-102.3-47.8L2732.5,2805.2z"/>
			</g>
			<g>
				<polygon class="st3" points="2728.9,2806.3 2666.2,2908.2 2564,2860.5 2626.7,2758.6 				"/>
				<path class="st2" d="M2666.2,2910.7c-0.4,0-0.7-0.1-1.1-0.2l-102.2-47.7c-0.7-0.3-1.1-0.9-1.4-1.6c-0.2-0.7-0.1-1.4,0.3-2.1
					l62.7-101.9c0.7-1.1,2.1-1.5,3.2-1l102.2,47.7c0.7,0.3,1.1,0.9,1.4,1.6c0.2,0.7,0.1,1.4-0.3,2.1l-62.7,101.9
					C2667.9,2910.3,2667,2910.7,2666.2,2910.7z M2567.7,2859.4l97.5,45.5l60-97.6l-97.5-45.5L2567.7,2859.4z"/>
			</g>
			<g>
				<polygon class="st3" points="2626.7,2758.6 2564,2860.5 172.7,1744.8 235.4,1642.9 				"/>
				<path class="st2" d="M2564,2863.1c-0.4,0-0.7-0.1-1.1-0.2L171.6,1747.1c-0.7-0.3-1.1-0.9-1.4-1.6c-0.2-0.7-0.1-1.4,0.3-2.1
					l62.7-101.9c0.7-1.1,2.1-1.5,3.2-1l2391.3,1115.8c0.7,0.3,1.1,0.9,1.4,1.6c0.2,0.7,0.1,1.4-0.3,2.1l-62.7,101.9
					C2565.7,2862.6,2564.9,2863.1,2564,2863.1z M176.4,1743.7L2563,2857.3l60-97.6L236.4,1646.1L176.4,1743.7z"/>
			</g>
			<g>
				<polygon class="st3" points="235.4,1642.9 172.7,1744.8 64.8,1694.4 127.5,1592.5 				"/>
				<path class="st2" d="M172.7,1747.3c-0.4,0-0.7-0.1-1.1-0.2l-107.9-50.3c-0.7-0.3-1.1-0.9-1.4-1.6s-0.1-1.4,0.3-2.1l62.7-101.9
					c0.7-1.1,2.1-1.5,3.2-1l107.8,50.3c0.7,0.3,1.1,0.9,1.4,1.6c0.2,0.7,0.1,1.4-0.3,2.1l-62.7,101.9
					C174.4,1746.9,173.6,1747.3,172.7,1747.3z M68.5,1693.3l103.3,48.2l60-97.6l-103.2-48.2L68.5,1693.3z"/>
			</g>
			<g>
				<path class="st4" d="M533.1,1853.6L533.1,1853.6c-10.3,16.8-31.5,23.1-49.4,14.8l-177-82.6c-21-9.8-28.8-35.7-16.6-55.4l0,0
					c10.3-16.7,31.5-23.1,49.4-14.8l177,82.6C537.5,1808,545.2,1833.9,533.1,1853.6z"/>
				<path class="st2" d="M500.1,1874.6c-5.9,0-11.8-1.3-17.4-3.9l-177-82.6c-10.7-5-18.7-14.3-22.1-25.6
					c-3.4-11.3-1.8-23.5,4.4-33.5c11-17.8,33.6-24.6,52.6-15.8l177,82.6c10.7,5,18.7,14.3,22.1,25.5s1.8,23.5-4.4,33.5c0,0,0,0,0,0
					C527.5,1867.5,514,1874.6,500.1,1874.6z M323.1,1714.5c-12.2,0-24.1,6.2-30.8,17.2c-5.4,8.8-6.8,19.5-3.9,29.4
					c3,9.9,10,18.1,19.4,22.4l177,82.6c16.7,7.8,36.5,1.8,46.2-13.8c0,0,0,0,0,0c5.4-8.8,6.8-19.5,3.8-29.3c-3-9.9-10-18-19.4-22.4
					l-177-82.6C333.5,1715.6,328.2,1714.5,323.1,1714.5z M533.1,1853.6L533.1,1853.6L533.1,1853.6z"/>
			</g>
			<g>
				<polygon class="st5" points="3763.8,1347.2 3666,1506.3 3559,1456.4 1065.5,293 958.5,243 1056.5,84 				"/>
				<path class="st2" d="M3666,1508.8c-0.4,0-0.7-0.1-1.1-0.2l-107-49.9L1064.5,295.3l-107-49.9c-0.7-0.3-1.1-0.9-1.4-1.6
					c-0.2-0.7-0.1-1.4,0.3-2.1l97.9-159c0.7-1.1,2.1-1.5,3.2-1l2707.3,1263.2c0.7,0.3,1.1,0.9,1.4,1.6c0.2,0.7,0.1,1.4-0.3,2.1
					l-97.8,159.1C3667.7,1508.4,3666.8,1508.8,3666,1508.8z M962.2,242l104.4,48.7l2493.5,1163.4l104.9,49l95.2-154.8L1057.5,87.3
					L962.2,242z"/>
			</g>
			<g>
				<path class="st6" d="M958.5,243v141.6l-10,22.6c-13.6,30.7-32.4,58.7-55.5,83l-16.4,17.2c-26.8,28.2-47.8,61.4-61.6,97.7
					l-5.5,14.5c-13.8,36.4-34.8,69.6-61.6,97.7l-10.7,11.2c-26.8,28.2-47.8,61.4-61.6,97.7l-5.5,14.5
					c-13.8,36.3-34.8,69.6-61.6,97.7l-10.7,11.2c-26.8,28.2-47.8,61.4-61.6,97.7l-5.5,14.5c-13.8,36.3-34.8,69.6-61.6,97.7
					l-10.7,11.2c-26.8,28.2-47.8,61.4-61.6,97.7l-5.5,14.5c-13.8,36.4-34.8,69.6-61.6,97.7l-10.7,11.2
					c-26.8,28.2-47.8,61.4-61.6,97.7l-5.5,14.5c-13.8,36.3-34.8,69.6-61.6,97.7l-12.9,13.5l-49.8-23.3l764-1240.8L958.5,243z"/>
				<path class="st2" d="M177.4,1618.3c-0.4,0-0.7-0.1-1.1-0.2l-49.8-23.3c-0.7-0.3-1.1-0.9-1.4-1.6s-0.1-1.4,0.3-2.1l764-1240.8
					l67-108.7c0.6-1,1.8-1.4,2.8-1.1c1.1,0.3,1.8,1.3,1.8,2.4v141.6c0,0.4-0.1,0.7-0.2,1l-10,22.6c-13.8,31-32.6,59.2-56,83.8
					l-16.4,17.2c-26.7,28.1-47.3,60.7-61.1,96.9l-5.5,14.5c-14,36.9-34.9,70-62.1,98.6L739,730.4c-26.7,28.1-47.3,60.7-61.1,96.9
					l-5.5,14.5c-14,36.9-34.9,70-62.1,98.6l-10.7,11.2c-26.7,28.1-47.3,60.7-61.1,96.9l-5.5,14.5c-14,36.9-34.9,70-62.1,98.6
					l-10.7,11.2c-26.7,28.1-47.3,60.7-61.1,96.9l-5.5,14.5c-14,36.9-34.9,70-62.1,98.6l-10.7,11.2c-26.7,28.1-47.3,60.7-61.1,96.9
					l-5.5,14.5c-14,36.9-34.9,70-62.1,98.6l-12.9,13.5C178.7,1618.1,178.1,1618.3,177.4,1618.3z M131.2,1591.5l45.6,21.3l11.6-12.2
					c26.7-28.1,47.3-60.7,61.1-96.9l5.5-14.5c14-36.9,34.9-70,62.1-98.6l10.7-11.2c26.7-28.1,47.3-60.7,61.1-96.9l5.5-14.5
					c14-36.9,34.9-70,62.1-98.6l10.7-11.2c26.7-28.1,47.3-60.7,61.1-96.9l5.5-14.5c14-36.9,34.9-70,62.1-98.6l10.7-11.2
					c26.7-28.1,47.3-60.7,61.1-96.9l5.5-14.5c14-36.9,34.9-70,62.1-98.6l10.7-11.2c26.7-28.1,47.3-60.7,61.1-96.9l5.5-14.5
					c14-36.9,34.9-70,62.1-98.6l16.4-17.2c23-24.1,41.5-51.8,55.1-82.3l9.8-22.1V252l-62.3,101.1L131.2,1591.5z"/>
			</g>
			<g>
				<path class="st5" d="M3529,1505.2l-36.9,60l-763.3,1241.1L235.4,1642.9l-58-27.1l12.9-13.5c26.8-28.2,47.8-61.4,61.6-97.7
					l5.5-14.5c13.8-36.3,34.8-69.6,61.6-97.7l10.7-11.2c26.8-28.2,47.8-61.4,61.6-97.7l5.5-14.5c13.8-36.3,34.8-69.6,61.6-97.7
					l10.7-11.2c26.8-28.2,47.8-61.4,61.6-97.7l5.5-14.5c13.8-36.4,34.8-69.6,61.6-97.7l10.7-11.2c26.8-28.2,47.8-61.4,61.6-97.7
					l5.5-14.5c13.8-36.4,34.8-69.6,61.6-97.7l10.7-11.2c26.8-28.2,47.8-61.4,61.6-97.7l5.5-14.5c13.8-36.4,34.8-69.6,61.6-97.7
					l16.4-17.2c23.1-24.3,41.9-52.4,55.5-83l10-22.6l8.6-19.3c10.1-22.7,37.7-31.5,59-18.8l144.1,85.5
					c17.8,10.6,36.6,19.2,56.3,25.7l166.9,55.9c20.4,6.8,40,15.9,58.4,27l149.6,90.4c18.4,11.1,38,20.2,58.4,27l165.7,55.5
					c20.4,6.8,40,15.9,58.4,27l149.6,90.4c18.4,11.1,38,20.2,58.4,27l165.7,55.5c20.4,6.8,40,15.9,58.4,27l149.6,90.4
					c18.4,11.1,38,20.2,58.4,27l165.7,55.5c20.4,6.8,40,15.9,58.4,27l149.6,90.4c18.4,11.1,38,20.2,58.4,27l165.7,55.5
					c20.4,6.8,40,15.9,58.4,27l149.6,90.4c18.4,11.1,38,20.2,58.4,27L3529,1505.2L3529,1505.2z"/>
				<path class="st2" d="M2728.9,2808.8c-0.4,0-0.7-0.1-1.1-0.2L234.3,1645.2l-58-27.1c-0.7-0.3-1.3-1-1.4-1.8
					c-0.2-0.8,0.1-1.6,0.7-2.2l12.9-13.5c26.7-28.1,47.3-60.7,61.1-96.9l5.5-14.5c14-36.9,34.9-70,62.1-98.6l10.7-11.2
					c26.7-28.1,47.3-60.7,61.1-96.9l5.5-14.5c14-36.9,34.9-70,62.1-98.6l10.7-11.2c26.7-28.1,47.3-60.7,61.1-96.9l5.5-14.5
					c14-36.9,34.9-70,62.1-98.6l10.7-11.2c26.7-28.1,47.3-60.7,61.1-96.9l5.5-14.5c14-36.9,34.9-70,62.1-98.6l10.7-11.2
					c26.7-28.1,47.3-60.7,61.1-96.9l5.5-14.5c14-36.9,34.9-70,62.1-98.6l16.4-17.2c23-24.1,41.5-51.8,55.1-82.3l18.6-41.9
					c5.1-11.5,14.9-20.2,26.8-24.1c12-3.8,25-2.3,35.8,4.1l144.1,85.5c17.6,10.4,36.4,19,55.8,25.5l166.9,55.9
					c20.5,6.9,40.3,16,58.9,27.3l149.6,90.4c18.2,11,37.7,20,57.9,26.8l165.7,55.5c20.5,6.9,40.3,16,58.9,27.2l149.6,90.4
					c18.2,11,37.7,20,57.9,26.8l165.7,55.5c20.5,6.9,40.3,16,58.9,27.2l149.6,90.4c18.2,11,37.7,20,57.9,26.8l165.7,55.5
					c20.5,6.9,40.3,16,58.9,27.2l149.6,90.4c18.2,11,37.7,20,57.9,26.8l165.7,55.5c20.5,6.9,40.4,16.1,58.9,27.3l149.6,90.4
					c18.2,11,37.7,20,57.9,26.8l140.9,47.2c0.7,0.2,1.3,0.8,1.6,1.5c0.3,0.7,0.2,1.5-0.2,2.2l-36.9,60L2731,2807.6
					C2730.6,2808.4,2729.7,2808.8,2728.9,2808.8z M181.7,1615l54.8,25.6L2727.9,2803L3490,1563.8l35.2-57.3l-137.8-46.2
					c-20.5-6.9-40.3-16-58.9-27.3l-149.6-90.4c-18.2-11-37.7-20-57.9-26.8l-165.7-55.5c-20.5-6.9-40.3-16-58.9-27.2l-149.6-90.4
					c-18.2-11-37.7-20-57.9-26.8l-165.7-55.5c-20.5-6.9-40.4-16.1-58.9-27.3l-149.6-90.4c-18.2-11-37.7-20-57.9-26.8l-165.7-55.5
					c-20.5-6.9-40.3-16-58.9-27.3l-149.6-90.4c-18.2-11-37.7-20-57.9-26.8L1659,660.5c-20.5-6.9-40.3-16-58.9-27.2l-149.6-90.4
					c-18.2-11-37.7-20-57.9-26.8l-166.9-55.9c-19.8-6.6-38.8-15.4-56.7-26l-144.1-85.5c-9.5-5.7-21.1-7-31.7-3.6
					c-10.6,3.4-19.2,11.1-23.8,21.3l-18.6,41.8c-13.8,31-32.6,59.2-56,83.8l-16.4,17.2c-26.7,28.1-47.3,60.7-61.1,96.9l-5.5,14.5
					c-14,36.9-34.9,70-62.1,98.6L739,730.4c-26.7,28.1-47.3,60.7-61.1,96.9l-5.5,14.5c-14,36.9-34.9,70-62.1,98.6l-10.7,11.2
					c-26.7,28.1-47.3,60.7-61.1,96.9l-5.5,14.5c-14,36.9-34.9,70-62.1,98.6l-10.7,11.2c-26.7,28.1-47.3,60.7-61.1,96.9l-5.5,14.5
					c-14,36.9-34.9,70-62.1,98.6l-10.7,11.2c-26.7,28.1-47.3,60.7-61.1,96.9l-5.5,14.5c-14,36.9-34.9,70-62.1,98.6L181.7,1615z"/>
			</g>
			<g>
				<path class="st7" d="M3559,1456.4l-30,48.8l-140.9-47.2c-20.4-6.8-40-15.9-58.4-27l-149.6-90.4c-18.4-11.1-38-20.2-58.4-27
					l-165.7-55.5c-20.4-6.8-40-15.9-58.4-27l-149.6-90.4c-18.4-11.1-38-20.2-58.4-27L2524,1058c-20.4-6.8-40-15.9-58.4-27
					L2316,940.6c-18.4-11.1-38-20.2-58.4-27l-165.7-55.5c-20.4-6.8-40-15.9-58.4-27l-149.6-90.4c-18.4-11.1-38-20.2-58.4-27
					l-165.7-55.5c-20.4-6.8-40-15.9-58.4-27l-149.6-90.4c-18.4-11.1-38-20.2-58.4-27l-166.9-55.9c-19.6-6.6-38.5-15.2-56.3-25.7
					l-144.1-85.5c-21.3-12.7-49-3.8-59,18.8l-8.6,19.3V243l107,49.9L3559,1456.4z"/>
				<path class="st2" d="M3529,1507.7c-0.3,0-0.5,0-0.8-0.1l-140.9-47.2c-20.5-6.9-40.3-16-58.9-27.3l-149.6-90.4
					c-18.2-11-37.7-20-57.9-26.8l-165.7-55.5c-20.5-6.9-40.3-16-58.9-27.2l-149.6-90.4c-18.2-11-37.7-20-57.9-26.8l-165.7-55.5
					c-20.5-6.9-40.4-16.1-58.9-27.3l-149.6-90.4c-18.2-11-37.7-20-57.9-26.8l-165.7-55.5c-20.5-6.9-40.3-16-58.9-27.3l-149.6-90.4
					c-18.2-11-37.7-20-57.9-26.8L1659,660.5c-20.5-6.9-40.3-16-58.9-27.2l-149.6-90.4c-18.2-11-37.7-20-57.9-26.8l-166.9-55.9
					c-19.8-6.6-38.8-15.4-56.7-26l-144.1-85.5c-9.5-5.7-21.1-7-31.7-3.6c-10.6,3.4-19.2,11.1-23.8,21.3l-8.6,19.3
					c-0.5,1.1-1.7,1.7-2.8,1.5c-1.2-0.2-2-1.3-2-2.5V243c0-0.9,0.4-1.7,1.2-2.1c0.7-0.5,1.6-0.5,2.4-0.2l107,49.9l2493.5,1163.4
					c0.7,0.3,1.1,0.9,1.4,1.6c0.2,0.7,0.1,1.4-0.3,2.1l-30,48.8C3530.7,1507.3,3529.9,1507.7,3529,1507.7z M1005,338.2
					c7.8,0,15.6,2.1,22.4,6.1l144.1,85.5c17.6,10.4,36.4,19,55.8,25.5l166.9,55.9c20.5,6.9,40.3,16,58.9,27.3l149.6,90.4
					c18.2,11,37.7,20,57.9,26.8l165.7,55.5c20.5,6.9,40.3,16,58.9,27.2l149.6,90.4c18.2,11,37.7,20,57.9,26.8l165.7,55.5
					c20.5,6.9,40.3,16,58.9,27.2l149.6,90.4c18.2,11,37.7,20,57.9,26.8l165.7,55.5c20.5,6.9,40.3,16,58.9,27.2l149.6,90.4
					c18.2,11,37.7,20,57.9,26.8l165.7,55.5c20.5,6.9,40.4,16.1,58.9,27.3l149.6,90.4c18.2,11,37.7,20,57.9,26.8l139,46.5l27.4-44.6
					L1064.5,295.3L961.1,247v125.7l3.7-8.3c5.1-11.5,14.9-20.2,26.8-24.1C996,338.9,1000.5,338.2,1005,338.2z"/>
			</g>
			<g>
				<polygon class="st3" points="3666,1506.3 3599.1,1615.1 3492.1,1565.2 3559,1456.4 				"/>
				<path class="st2" d="M3599.1,1617.6c-0.4,0-0.7-0.1-1.1-0.2l-107-49.9c-0.7-0.3-1.1-0.9-1.4-1.6c-0.2-0.7-0.1-1.4,0.3-2.1
					l66.9-108.8c0.7-1.1,2.1-1.5,3.2-1l107,49.9c0.7,0.3,1.1,0.9,1.4,1.6c0.2,0.7,0.1,1.4-0.3,2.1l-66.9,108.8
					C3600.8,1617.2,3600,1617.6,3599.1,1617.6z M3495.8,1564.1l102.3,47.8l64.2-104.4l-102.3-47.8L3495.8,1564.1z"/>
			</g>
			<g>
				<path class="st4" d="M3525.7,1676.5l-48.1,78.2c-7.8,12.7-23.9,17.5-37.4,11.2l0,0c-15.9-7.4-21.8-27-12.6-41.9l48.1-78.2
					c7.8-12.7,23.9-17.5,37.4-11.2l0,0C3529,1642,3534.9,1661.6,3525.7,1676.5L3525.7,1676.5z"/>
				<path class="st2" d="M3452.7,1771.2c-4.5,0-9.1-1-13.5-3c-8.2-3.8-14.4-11-17-19.7c-2.6-8.7-1.4-18.1,3.4-25.8l48.1-78.2
					c8.5-13.8,25.9-19,40.6-12.2c0,0,0,0,0,0c8.2,3.8,14.4,11,17,19.7c2.6,8.7,1.4,18.1-3.4,25.8l-48.1,78.2
					C3473.8,1765.7,3463.4,1771.2,3452.7,1771.2z M3500.8,1634.3c-9,0-17.8,4.6-22.8,12.8l-48.1,78.2c-4,6.5-5,14.4-2.8,21.7
					c2.2,7.3,7.4,13.3,14.3,16.6c12.3,5.8,27,1.4,34.1-10.2l48.1-78.2c4-6.5,5-14.4,2.8-21.7c-2.2-7.3-7.4-13.3-14.3-16.6
					c0,0,0,0,0,0C3508.4,1635.2,3504.6,1634.3,3500.8,1634.3z"/>
			</g>
			<g>
				<path class="st7" d="M3672.5,1400.9l-10,16.3c-10.8,17.6-33.1,24.2-51.8,15.5l-36.3-16.9c-21.9-10.2-30.1-37.2-17.5-57.9
					l10-16.4c10.8-17.7,33.1-24.4,51.9-15.7l36.4,17C3677.1,1353.1,3685.3,1380.2,3672.5,1400.9z"/>
				<path class="st2" d="M3627.9,1439.1c-6.1,0-12.3-1.3-18.2-4.1l-36.3-16.9c-11.1-5.2-19.5-14.9-23-26.6
					c-3.5-11.7-1.9-24.5,4.4-34.9l10-16.4c11.4-18.8,35.1-26,55.1-16.7l36.4,17c11.1,5.2,19.5,14.9,23.1,26.7s1.9,24.5-4.6,35
					l-10,16.3C3656.6,1431.7,3642.5,1439.1,3627.9,1439.1z M3601.5,1324.6c-12.9,0-25.4,6.6-32.5,18.3l-10,16.4
					c-5.6,9.2-7,20.5-3.9,30.8c3.1,10.3,10.5,18.9,20.3,23.5l36.3,16.9c17.5,8.2,38.4,1.9,48.5-14.6l10-16.3
					c5.7-9.2,7.2-20.5,4-30.9c-3.1-10.4-10.5-19-20.4-23.6l-36.4-17C3612.5,1325.7,3607,1324.6,3601.5,1324.6z M3672.5,1400.9
					L3672.5,1400.9L3672.5,1400.9z"/>
			</g>
			<path class="st3" d="M1696.7,1518.5c-0.3,0-0.7-0.1-1-0.2c-1.3-0.6-1.9-2-1.3-3.3c2.7-6.3,8.9-10.2,13.9-12.8
				c7.7-4,17.2-5.5,28.5-4.5c1.4,0.1,2.4,1.4,2.3,2.7c-0.1,1.4-1.4,2.4-2.7,2.3c-10.3-0.9-18.9,0.4-25.7,3.9
				c-4.3,2.2-9.5,5.4-11.6,10.3C1698.6,1518,1697.7,1518.5,1696.7,1518.5z"/>
			<g>
				<path class="st6" d="M3522.9,1332.1l-10,16.3c-10.8,17.6-33.1,24.2-51.8,15.5l-36.3-16.9c-21.9-10.2-30.1-37.2-17.5-57.9
					l10-16.4c10.8-17.7,33.1-24.4,51.9-15.7l36.4,17C3527.5,1284.3,3535.6,1311.5,3522.9,1332.1z"/>
				<path class="st2" d="M3478.3,1370.3c-6.1,0-12.3-1.3-18.2-4.1l-36.3-16.9c-11.1-5.2-19.5-14.9-23-26.6
					c-3.5-11.7-1.9-24.5,4.4-34.9l10-16.4c11.4-18.8,35.1-26,55.1-16.7l36.4,17c11.1,5.2,19.5,14.9,23.1,26.7
					c3.5,11.8,1.9,24.5-4.6,35l-10,16.3C3506.9,1362.9,3492.8,1370.3,3478.3,1370.3z M3451.9,1255.8c-12.9,0-25.4,6.6-32.5,18.3
					l-10,16.4c-5.6,9.2-7,20.5-3.9,30.8c3.1,10.3,10.5,18.9,20.3,23.5l36.3,16.9c5.2,2.4,10.7,3.6,16.1,3.6
					c12.9,0,25.3-6.5,32.4-18.1l10-16.3l0,0c5.7-9.2,7.2-20.5,4-30.9c-3.1-10.4-10.5-19-20.4-23.6l-36.4-17
					C3462.8,1256.9,3457.3,1255.8,3451.9,1255.8z"/>
			</g>
			<g>
				<path class="st0" d="M3373.3,1263.3l-10,16.3c-10.8,17.6-33.1,24.2-51.8,15.5l-36.3-16.9c-21.9-10.2-30.1-37.2-17.5-57.9
					l10-16.4c10.8-17.7,33.1-24.4,51.9-15.7l36.4,17C3377.8,1215.5,3386,1242.7,3373.3,1263.3z"/>
				<path class="st2" d="M3328.6,1301.5c-6.1,0-12.3-1.3-18.2-4.1l-36.3-16.9c-11.1-5.2-19.5-14.9-23-26.6s-1.9-24.5,4.4-34.9
					l10-16.4c11.4-18.8,35.1-26,55.1-16.7l36.4,17c11.1,5.2,19.5,14.9,23.1,26.7c3.5,11.8,1.9,24.5-4.6,35l-10,16.3
					C3357.3,1294.1,3343.2,1301.5,3328.6,1301.5z M3302.3,1187c-12.9,0-25.4,6.6-32.5,18.3l-10,16.4c-5.6,9.2-7,20.5-3.9,30.8
					c3.1,10.3,10.5,18.9,20.3,23.5l36.3,16.9c17.5,8.2,38.4,1.9,48.5-14.6l10-16.3l0,0c5.7-9.2,7.2-20.5,4-30.9s-10.5-19-20.4-23.6
					l-36.4-17C3313.2,1188.1,3307.7,1187,3302.3,1187z"/>
			</g>
			<path class="st2" d="M554.1,1073.1c-5.6,0-10.1-4.5-10.1-10.1v-93.1c0-23.4-13.7-45-35-54.9c-9.7-4.5-21-3.8-30,2
				c-9.1,5.8-14.5,15.6-14.5,26.4v73.2c0,5.6-4.5,10.1-10.1,10.1s-10.1-4.5-10.1-10.1v-73.2c0-17.7,8.9-34,23.9-43.5
				c14.9-9.5,33.4-10.7,49.5-3.2c28.3,13.2,46.7,42,46.7,73.3v93.1C564.2,1068.6,559.7,1073.1,554.1,1073.1L554.1,1073.1z"/>
			<path class="st2" d="M623.9,967.6c-5.6,0-10.1-4.5-10.1-10.1v-93.1c0-23.4-13.7-45-35-54.9c-9.7-4.5-21-3.8-30,2
				c-9.1,5.8-14.5,15.6-14.5,26.4V911c0,5.6-4.5,10.1-10.1,10.1S514,916.6,514,911v-73.2c0-17.7,8.9-34,23.9-43.5
				c14.9-9.5,33.4-10.7,49.5-3.2c28.3,13.2,46.7,42,46.7,73.3v93.1C634,963.1,629.5,967.6,623.9,967.6L623.9,967.6z"/>
			<g>
				<path class="st4" d="M1798.2,1414.3c-0.1,9-0.7,17.1-3.5,25.7c-2.8,8.7-6.6,17.1-10,25.6c-1.4,3.6-2.7,7.2-3.5,10.9
					c-0.8,3.6-1,7.4-1.1,11.1c-0.7,16.8,0.4,33.5,1.4,50.3c0,0-32.4,19.2-56.9-3c1.4-18.2,2.7-36.8-2-54.5
					c-3.4-12.8-9.9-24.6-13.8-37.3c-5.3-17.2-5.6-35.4-5.9-53.4c-0.1-4.1,1-9.5,5.1-9.9c3.7-0.3,5.8,4.1,6.9,7.7
					c4.1,14.8,8.3,29.6,12.4,44.5c2-27.5,0.1-57.2-5-84.3c-0.7-3.8-0.6-9.2,3.1-10.1c3.5-0.9,6.2,3.1,7.5,6.5
					c8.4,21.4,13.5,44.1,15.1,67c1.5-22.8,0.6-46.6-2.4-68.8c-0.5-3.9-0.2-9.2,3.6-10c3.6-0.7,6,3.4,7.2,6.9
					c5.8,17.1,9.5,35,11.1,53c0.9-14.7,0.9-29.6-0.1-43.8c-0.3-3.9,0.4-9.2,4.3-9.7c3.6-0.5,5.8,3.9,6.7,7.4c1,4,2,7.9,2.8,12
					c0.2-3.5,1.3-7.2,4.5-7.5c3.6-0.4,5.7,4,6.5,7.5C1796.5,1376.6,1798.5,1395.5,1798.2,1414.3L1798.2,1414.3z"/>
				<path class="st2" d="M1752.6,1548c-9.6,0-20.2-2.7-29.7-11.3c-0.6-0.5-0.9-1.3-0.8-2.1c1.3-17.8,2.7-36.2-1.9-53.6
					c-1.8-6.7-4.5-13.4-7.2-19.8c-2.3-5.6-4.7-11.4-6.5-17.3c-5.4-17.7-5.7-36.2-6-54.1c-0.1-7.3,2.7-12,7.4-12.4
					c4.3-0.4,7.7,3,9.5,9.6c2.7,9.7,5.4,19.4,8.1,29.1c0.4-22.2-1.6-45.8-5.7-67.8c-1.3-7,0.6-11.9,5-13c4.2-1.1,8.1,2,10.5,8.1
					c4.6,11.7,8.2,23.8,10.8,36.1c-0.3-12.3-1.3-24.6-3-36.6c-1-7.1,1.1-11.9,5.6-12.8c4.2-0.9,8,2.4,10.1,8.6
					c2.7,7.9,4.9,15.9,6.7,24.1c-0.1-4.7-0.3-9.3-0.6-13.9c-0.5-7.1,1.9-11.8,6.5-12.4c4.3-0.6,7.8,2.9,9.5,9.2
					c0.4,1.4,0.7,2.7,1,4.1c1-0.9,2.2-1.4,3.6-1.5c4.3-0.5,7.7,3.1,9.2,9.5c4.4,18.5,6.4,37.5,6.1,56.6c-0.2,10-0.8,17.9-3.6,26.4
					c-2,6-4.4,11.9-6.7,17.6c-1.1,2.7-2.2,5.4-3.3,8.2c-1.2,3.1-2.6,6.8-3.4,10.5c-0.7,3.3-0.9,6.7-1.1,10.7
					c-0.7,16.7,0.4,33.6,1.4,50c0.1,0.9-0.4,1.9-1.2,2.3C1782.6,1540.2,1769,1548,1752.6,1548z M1727.2,1533.8
					c20,17.1,45.6,5.7,51.7,2.6c-1-16-2-32.6-1.3-48.9c0.1-3.7,0.4-7.7,1.2-11.5c0.9-4.1,2.3-8,3.6-11.3c1.1-2.8,2.2-5.5,3.3-8.2
					c2.3-5.6,4.7-11.4,6.6-17.2c2.6-7.9,3.2-15.4,3.3-24.9v0c0.3-18.6-1.7-37.2-5.9-55.3c-0.7-2.8-2.1-5.8-3.8-5.6
					c-1.9,0.2-2.2,4.3-2.3,5.1c-0.1,1.3-1.1,2.3-2.3,2.4c-1.3,0.1-2.4-0.8-2.7-2c-0.8-3.8-1.7-7.8-2.7-11.8
					c-0.7-2.8-2.3-5.7-3.9-5.5c-1.8,0.2-2.3,3.8-2.1,7c1,14.5,1,29.3,0.1,44.1c-0.1,1.3-1.2,2.4-2.5,2.4h0c-1.3,0-2.4-1-2.5-2.3
					c-1.6-17.9-5.3-35.5-11-52.4c-0.9-2.7-2.7-5.5-4.3-5.2c-1.7,0.4-2.1,3.9-1.6,7.1c3.1,22.6,4,46.6,2.4,69.3
					c-0.1,1.3-1.2,2.4-2.5,2.4h0c-1.3,0-2.4-1-2.5-2.4c-1.6-22.7-6.6-45-14.9-66.3c-1.1-2.7-2.9-5.4-4.5-5c-1.6,0.4-1.9,3.9-1.3,7.2
					c5.2,27.7,7,57.9,5,84.9c-0.1,1.2-1,2.2-2.3,2.3c-1.2,0.1-2.4-0.7-2.7-1.8c-4.1-14.8-8.3-29.6-12.4-44.5c-0.8-3-2.3-6-4.2-5.9
					c-2,0.2-2.8,3.9-2.7,7.3c0.3,17.5,0.6,35.7,5.8,52.7c1.7,5.7,4.1,11.4,6.4,16.9c2.7,6.6,5.5,13.4,7.4,20.5
					C1729.8,1497.6,1728.6,1516,1727.2,1533.8z"/>
			</g>
			<path class="st2" d="M1768.4,1416.7L1768.4,1416.7c-1.4,0-2.5-1.2-2.5-2.6c0.1-7.2-0.2-14.4-0.9-21.5c-0.1-1.4,0.9-2.6,2.3-2.7
				c1.4-0.1,2.6,0.9,2.7,2.3c0.6,7.2,0.9,14.6,0.9,22C1770.9,1415.6,1769.8,1416.7,1768.4,1416.7z"/>
			<path class="st2" d="M1785.1,1424.2c-0.1,0-0.1,0-0.2,0c-1.4-0.1-2.4-1.3-2.3-2.7c1.6-21,0.3-42.1-3.9-62.7c-0.3-1.4,0.6-2.7,2-3
				c1.4-0.3,2.7,0.6,3,2c4.3,21.1,5.7,42.7,4,64.1C1787.6,1423.2,1786.4,1424.2,1785.1,1424.2z"/>
			<path class="st2" d="M1748.4,1420.9c-1.4,0-2.5-1.1-2.5-2.4c-0.1-2.3-0.2-4.7-0.4-7c-0.1-1.4,0.9-2.6,2.3-2.7
				c1.4-0.1,2.6,0.9,2.7,2.3c0.2,2.4,0.3,4.8,0.4,7.1C1751,1419.6,1749.9,1420.8,1748.4,1420.9
				C1748.5,1420.9,1748.4,1420.9,1748.4,1420.9z"/>
			<path class="st3" d="M1462.2,1664.4c-0.4,0-0.8-0.1-1.2-0.3c-17.6-9.4-31.5-24.8-39.3-43.2c-0.5-1.3,0.1-2.8,1.4-3.3
				c1.3-0.5,2.8,0.1,3.3,1.4c7.3,17.3,20.4,31.8,37,40.7c1.2,0.7,1.7,2.2,1,3.4C1464,1663.9,1463.1,1664.4,1462.2,1664.4z"/>
			<path class="st3" d="M1686.2,1614.6c-0.1,0-0.2,0-0.3,0c-24.7-3.3-47.4-20-57.9-42.6c-0.6-1.3,0-2.8,1.2-3.4
				c1.3-0.6,2.8,0,3.4,1.2c9.7,21.1,30.9,36.6,53.9,39.7c1.4,0.2,2.4,1.5,2.2,2.8C1688.5,1613.7,1687.5,1614.6,1686.2,1614.6z"/>
			<path class="st3" d="M2011.9,1561.6c-0.1,0-0.2,0-0.4,0c-1.4-0.2-2.3-1.5-2.2-2.9c1.7-12-2.5-24.8-11-33.5c-1-1-1-2.6,0-3.6
				c1-1,2.6-1,3.6,0c9.5,9.8,14.3,24.2,12.4,37.8C2014.2,1560.7,2013.1,1561.6,2011.9,1561.6z"/>
			<path class="st3" d="M2127.7,1473.6c-1.2,0-2.2-0.8-2.5-2c-4.8-22-17.8-42.5-35.7-56.1c-1.1-0.9-1.3-2.4-0.5-3.6
				c0.9-1.1,2.4-1.3,3.6-0.5c18.8,14.4,32.5,35.9,37.5,59.1c0.3,1.4-0.6,2.7-1.9,3C2128,1473.6,2127.9,1473.6,2127.7,1473.6z"/>
			<path class="st3" d="M1738.5,1557.3c-0.1,0-0.2,0-0.3,0c-5.5-0.6-10.5-3-14.7-5.2c-3.2-1.6-6.8-3.6-9.7-6.5
				c-3.4-3.3-5.3-7.4-5.3-11.4c-0.1-4,1.8-7.9,4.9-10.5c1.1-0.9,2.7-0.7,3.6,0.4s0.7,2.7-0.4,3.6c-1.9,1.6-3.1,4-3,6.5
				c0,2.6,1.4,5.5,3.8,7.9c2.4,2.4,5.6,4.1,8.5,5.6c4.7,2.4,8.7,4.2,12.9,4.6c1.4,0.2,2.4,1.4,2.2,2.8
				C1740.9,1556.4,1739.8,1557.3,1738.5,1557.3z"/>
			<path class="st3" d="M1708,1565.4c-0.3,0-0.5,0-0.8-0.1c-9.7-3.2-17.6-11.2-20.5-21c-0.4-1.3,0.4-2.8,1.7-3.2
				c1.3-0.4,2.8,0.4,3.2,1.7c2.5,8.2,9.1,15,17.3,17.6c1.3,0.4,2.1,1.9,1.6,3.2C1710.1,1564.8,1709.1,1565.4,1708,1565.4z"/>
			<path class="st3" d="M1732.9,1594.1C1732.9,1594.1,1732.9,1594.1,1732.9,1594.1c-9.7-0.3-19-3.2-27.1-8.4
				c-1.2-0.8-1.5-2.3-0.7-3.5s2.3-1.5,3.5-0.7c7.3,4.7,15.7,7.3,24.4,7.6c1.4,0,2.5,1.2,2.5,2.6
				C1735.4,1593,1734.3,1594.1,1732.9,1594.1z"/>
			<path class="st3" d="M1753.5,1575.2c-3.5,0-7-0.2-10.5-0.5c-1.4-0.1-2.4-1.4-2.3-2.8c0.1-1.4,1.4-2.4,2.8-2.3
				c12.5,1.2,25.6,0.1,37.7-3.3c12-3.4,19.9-8.7,23.7-15.9c0.6-1.2,2.2-1.7,3.4-1.1c1.2,0.6,1.7,2.2,1.1,3.4
				c-4.4,8.4-13.4,14.6-26.8,18.4C1773,1573.8,1763.3,1575.2,1753.5,1575.2z"/>
			<path class="st3" d="M1780,1554.4c-1.2,0-2.3-0.9-2.5-2.1c-0.2-1.4,0.7-2.7,2.1-2.9c5.9-1,10.3-2.9,13.3-5.7
				c3.5-3.3,5.1-8.2,3.8-11.9c-0.5-1.3,0.2-2.8,1.6-3.2c1.3-0.5,2.8,0.2,3.2,1.6c2,5.7-0.1,12.6-5.1,17.3c-3.8,3.5-9,5.8-15.9,7
				C1780.3,1554.4,1780.2,1554.4,1780,1554.4z"/>
			<path class="st3" d="M1808.9,1527.4c-0.9,0-1.8-0.5-2.3-1.4c-3.2-6.4-8.9-11.5-15.5-14.1c-1.3-0.5-2-2-1.5-3.3
				c0.5-1.3,2-2,3.3-1.5c7.8,3,14.5,9.1,18.2,16.6c0.6,1.3,0.1,2.8-1.1,3.4C1809.7,1527.3,1809.3,1527.4,1808.9,1527.4z"/>
			<path class="st3" d="M1837.6,1536.3c-1.3,0-2.5-1-2.5-2.4c-0.6-11.7-11.3-24.4-20.9-29.5c-1.2-0.6-1.7-2.2-1.1-3.4
				c0.6-1.2,2.2-1.7,3.4-1.1c11.1,5.8,23,20,23.7,33.7c0.1,1.4-1,2.6-2.4,2.7C1837.7,1536.3,1837.7,1536.3,1837.6,1536.3z"/>
			<path class="st2" d="M2788.7,2813.3c-0.5,0-0.9-0.1-1.3-0.4c-0.7-0.5-1.2-1.3-1.2-2.1l-0.8-63.1c0-1.4,1.1-2.5,2.5-2.6
				c0,0,0,0,0,0c1.4,0,2.5,1.1,2.5,2.5l0.8,59.1l61.3-29.8c1.3-0.6,2.8-0.1,3.4,1.2c0.6,1.3,0.1,2.8-1.2,3.4l-64.9,31.5
				C2789.5,2813.3,2789.1,2813.3,2788.7,2813.3z"/>
			<path class="st2" d="M3596.7,1576c-1.3,0-2.4-1-2.5-2.4l-3.3-57.7l-63.5,33.5c-1.2,0.7-2.8,0.2-3.4-1.1c-0.7-1.2-0.2-2.8,1.1-3.4
				l67-35.4c0.8-0.4,1.7-0.4,2.4,0c0.8,0.4,1.2,1.2,1.3,2.1l3.6,61.7c0.1,1.4-1,2.6-2.4,2.7C3596.8,1576,3596.7,1576,3596.7,1576z"
				/>
			<path class="st2" d="M2608.1,2857.2c-1.2,0-2.3-0.9-2.5-2.2c-0.2-1.4,0.8-2.7,2.2-2.8l59.7-8l-23.9-47c-0.6-1.2-0.1-2.8,1.1-3.4
				s2.8-0.1,3.4,1.1l25.5,50.1c0.4,0.7,0.4,1.6,0,2.3c-0.4,0.7-1.1,1.2-1.9,1.3l-63.2,8.5
				C2608.3,2857.2,2608.2,2857.2,2608.1,2857.2z"/>
			<path class="st2" d="M155.4,1714.5c-0.9,0-1.8-0.5-2.3-1.4l-27.8-56.5c-0.4-0.7-0.3-1.6,0-2.3c0.4-0.7,1.1-1.2,1.9-1.3l64.5-7.6
				c1.4-0.2,2.6,0.8,2.8,2.2c0.2,1.4-0.8,2.6-2.2,2.8l-60.9,7.1l26.3,53.2c0.6,1.3,0.1,2.8-1.2,3.4
				C156.1,1714.4,155.8,1714.5,155.4,1714.5z"/>
		</g>
	</g>
</g>
<g id="Layer_2">
	<g>
		<path class="st2" d="M709.5,994.7c8.2,5.5,14.2,12.7,18.1,21.4c3.9,8.7,5.9,17.7,5.9,27s-2,18.3-5.9,27
			c-3.9,8.7-9.9,15.9-18.1,21.4c-8.2,5.5-18.4,8.3-30.5,8.3h-54.2v77.4h-43.6V986.4H679C691.2,986.4,701.4,989.2,709.5,994.7z
			 M682.7,1057.7c2.5-1.7,4.3-3.9,5.5-6.4c1.2-2.5,1.8-5.3,1.8-8.2c0-2.9-0.6-5.6-1.8-8.2c-1.2-2.5-3-4.7-5.5-6.4
			c-2.5-1.7-5.5-2.6-9.1-2.6h-48.8v34.3h48.8C677.2,1060.3,680.2,1059.4,682.7,1057.7z"/>
		<path class="st2" d="M895.2,1177.5h-31.1c-6.2,0-10.8-1.7-13.8-5.2c-3-3.4-4.5-8-4.5-13.6c0-3.8,0.5-7.4,1.6-10.8
			c1.1-3.4,2.4-6.2,3.8-8.6h-5.5c-1.8,5.5-4.6,10.9-8.4,16.4c-3.8,5.5-8.4,9.9-13.6,13.4c-7.6,4.9-15.8,8.2-24.4,9.9
			c-8.6,1.7-17.3,2-26,1c-6.4-0.7-12.4-2.7-18-6c-5.6-3.3-10.1-7.7-13.5-13.4c-3.4-5.6-5-12-5-19.1c0-10.9,3-19.4,8.9-25.3
			c5.9-6,13.7-10.1,23.3-12.3c4.7-1.1,9.5-2,14.4-2.6c4.9-0.6,9.4-1.1,13.6-1.5c5.3-0.4,10.4-0.9,15.3-1.6l3.5-0.5
			c6.2-0.9,10.5-2,13.1-3.4c2.5-1.4,3.2-4,1.9-8c-0.7-2.4-2.3-4.3-4.6-5.7c-2.4-1.5-5.2-2.5-8.4-3.1c-3.3-0.6-7-1-11.2-1
			c-6,0-11,0.8-15,2.3c-4,1.5-6.9,3.5-8.7,5.9c-1.8,2.4-2.7,4.9-2.7,7.6h-42.2c0-8.5,2.4-16.7,7.2-24.5c4.8-7.8,12.4-14.2,22.8-19.2
			c10.4-5,23.5-7.5,39.5-7.5c15.8,0,28.9,2.5,39.2,7.5c10.4,5,17.9,11.4,22.6,19.1c4.7,7.7,7.1,15.9,7.1,24.4v39.2
			c0,1.8,0.7,3.4,2,4.8c1.4,1.4,3,2,4.8,2h12V1177.5z M825.1,1115.3c-3.8,0.5-8.4,1.2-13.9,1.9c-5.1,0.5-10.2,1.2-15.3,1.9
			c-4.4,0.5-8.4,2.2-12.1,4.9c-3.7,2.7-5.6,6-5.6,9.8c0,3.8,1.5,6.9,4.5,9.3c3,2.4,6.7,3.9,11,4.6c4.5,0.4,8.4,0.4,11.7,0
			c3.3-0.4,7-1.5,11.2-3.5c4.5-2.2,8.2-5,11-8.4c2.8-3.4,4.4-6.7,4.8-9.8c0.2-2.4,0.3-4.6,0.3-6.8v-5.5
			C831.5,1114.2,828.9,1114.8,825.1,1115.3z"/>
		<path class="st2" d="M1009.4,1044.2v39.5c-12.7,0-23.3,2.8-31.6,8.3c-8.4,5.5-14.4,12.6-18.3,21.1c-3.8,8.5-5.7,17.4-5.7,26.7
			v37.3h-43.6v-88c0-1.8-0.5-3.2-1.4-4.1c-0.9-0.9-2.3-1.4-4.1-1.4h-17.2v-39.5h45.2c4.5,0,8.2,1.1,11,3.3c2.8,2.2,4.2,5.4,4.2,9.5
			c0,8.2-1.7,21.1-5.2,38.7h5.5c2.7-10.2,6.9-19.1,12.5-26.8c5.6-7.7,12.6-13.8,20.9-18.1C990,1046.4,999.2,1044.2,1009.4,1044.2z"
			/>
		<path class="st2" d="M1059,1097.3h5.5l46.3-53.1h46.9l-60,69v5.5l61.9,58.9l-51.8-0.3l-42.5-40.3h-6.3v40.3h-43.6V986.4h43.6
			V1097.3z"/>
		<path class="st2" d="M1189.7,1130.9c1.9,3.6,4.9,6.9,9,9.8c4.1,2.9,9.3,4.4,15.7,4.4c6.2,0,11.1-1.3,14.9-3.8
			c3.7-2.5,6.6-5.5,8.6-8.7h42.5c-2.9,11.1-9.2,21.9-18.9,32.3c-9.7,10.5-25.4,15.7-47,15.7c-15.8,0-28.9-3.4-39.2-10.2
			s-17.9-15.5-22.8-26.2c-4.8-10.6-7.2-21.8-7.2-33.4c0-11.6,2.4-22.8,7.2-33.4c4.8-10.6,12.4-19.4,22.8-26.2
			c10.4-6.8,23.4-10.2,39.2-10.2c16,0,29.3,3.6,40.1,10.9c10.7,7.3,18.4,17,23.2,29.2c4.7,12.2,6.4,25.4,5.2,39.8h-97
			C1186.4,1123.9,1187.8,1127.2,1189.7,1130.9z M1200.8,1079.3c-3.7,2-6.7,4.5-9,7.5c-2.3,3-3.9,6-4.8,9.1l54.2,0.3
			c-1.1-3.1-2.7-6.1-4.9-9.1s-5.1-5.5-8.7-7.6c-3.6-2.1-8.1-3.1-13.4-3.1C1209.1,1076.3,1204.6,1077.3,1200.8,1079.3z"/>
		<path class="st2" d="M1292.8,1077.4c4.4-10.7,11.1-19.5,20.3-26.3c9.2-6.8,20.7-10.2,34.5-10.2c12,0,21.3,2.2,27.8,6.7
			c6.5,4.5,12,9.9,16.4,16.2h5.5c-3.6-10-5.5-20.9-5.5-32.7v-44.7h43.6v190.8h-43.6v-0.5c0-2.9,0.5-6,1.6-9.4
			c1.1-3.4,2.4-6.6,3.8-9.7h-5.5c-0.5,0.7-1.1,1.5-1.6,2.2c-4,5.8-9.4,10.7-16.2,14.7c-6.8,4-16,6-27.7,6
			c-13.3,0-24.4-3.4-33.4-10.4c-9-6.9-15.7-15.7-20-26.3c-4.4-10.6-6.5-21.7-6.5-33.1C1286.3,1099.2,1288.5,1088.2,1292.8,1077.4z
			 M1339.2,1132.9c6.2,5.4,13.4,8,21.8,8c8.4,0,15.6-2.7,21.7-8c6.1-5.4,9.1-12.8,9.1-22.2c0-9.4-3-16.9-9.1-22.2
			c-6.1-5.4-13.3-8-21.7-8c-8.4,0-15.6,2.7-21.8,8c-6.2,5.4-9.3,12.8-9.3,22.2C1329.9,1120.1,1333,1127.5,1339.2,1132.9z"/>
	</g>
	<g>
		<path class="st2" d="M993.1,1202.7l-16.4,42.9h7l3.9-10.7h17.5l3.8,10.7h7.2l-16.3-42.9H993.1z M989.6,1229.5l5.1-14.1l1.6-5h0.2
			l1.6,5l5.1,14.1H989.6z"/>
		<path class="st2" d="M1032.8,1213.9c-2,0-4,0.5-5.8,1.5c-1.9,1-3.3,2.3-4.2,3.9h-0.2v-4.5h-6.2v30.7h6.5v-17.3
			c0-2.4,0.7-4.5,2.2-6.2c1.5-1.7,3.3-2.6,5.5-2.6c2.3,0,4,0.6,5.2,1.9c1.2,1.3,1.8,3.1,1.8,5.5v18.6h6.5v-19.9c0-3.7-1-6.6-3-8.6
			C1039.1,1215,1036.4,1213.9,1032.8,1213.9z"/>
		<path class="st2" d="M1102.4,1219.1h-0.1c-0.9-1.5-2.3-2.8-4.1-3.7c-1.8-1-3.8-1.4-5.9-1.4c-4.2,0-7.7,1.5-10.5,4.6
			c-2.5,2.7-3.9,6.1-4.1,10.1c-0.3-4-1.8-7.4-4.5-10.1c-3.1-3.1-6.9-4.6-11.5-4.6c-4.6,0-8.5,1.5-11.5,4.6c-3.1,3.1-4.6,7-4.6,11.7
			c0,4.7,1.5,8.6,4.6,11.7c3,3.1,6.9,4.6,11.6,4.6c4.7,0,8.5-1.5,11.6-4.6c2.7-2.7,4.2-6.1,4.5-10c0.3,4.1,1.6,7.5,4.1,10.2
			c2.8,3,6.2,4.5,10.4,4.5c2.2,0,4.3-0.5,6.1-1.4c1.9-0.9,3.3-2.2,4.3-3.8l0.1,0v4.3h6.2v-42.9h-6.4V1219.1z M1068.5,1237.9
			c-1.9,2-4.2,3-6.9,3c-2.8,0-5.1-1-7-3c-1.9-2-2.8-4.5-2.8-7.7c0-3.1,0.9-5.7,2.8-7.6c1.9-2,4.2-2.9,6.9-2.9c2.7,0,5,1,6.9,2.9
			c1.9,1.9,2.8,4.5,2.8,7.7C1071.3,1233.3,1070.3,1235.9,1068.5,1237.9z M1100,1237.9c-1.8,2-4,3-6.6,3c-2.6,0-4.9-1-6.7-3
			c-1.8-2-2.7-4.6-2.7-7.7c0-3.1,0.9-5.7,2.7-7.6c1.8-2,4-2.9,6.7-2.9c2.6,0,4.8,1,6.6,2.9c1.8,2,2.7,4.5,2.7,7.6
			S1101.7,1235.9,1100,1237.9z"/>
		<path class="st2" d="M1125.8,1213.9c-4.4,0-8.1,1.5-11,4.6c-2.9,3.1-4.3,7-4.3,11.7c0,4.8,1.5,8.7,4.4,11.7
			c2.9,3.1,6.7,4.6,11.3,4.6c2.2,0,4.2-0.3,5.7-0.8c1.6-0.5,3-1.3,4.4-2.3c1.3-1,2.6-2.6,3.8-4.7l-4.7-2.8c-1,1.4-1.9,2.5-2.6,3.1
			c-0.8,0.6-1.6,1.1-2.6,1.5c-1,0.4-2.1,0.5-3.4,0.5c-2.8,0-5.2-1-7-3c-1.6-1.7-2.5-3.9-2.7-6.7h23.8v-3.3c0-4.1-1.4-7.5-4.1-10.2
			C1133.8,1215.3,1130.2,1213.9,1125.8,1213.9z M1117.1,1227.1c0.4-1.9,1.1-3.5,2.2-4.8c1.7-1.9,3.8-2.9,6.5-2.9
			c2.5,0,4.5,0.7,6,2.2c1.5,1.5,2.3,3.3,2.5,5.5H1117.1z"/>
		<polygon class="st2" points="1133.5,1200.9 1126.9,1200.9 1123,1209.8 1128.3,1209.8 		"/>
		<path class="st2" d="M1167.7,1220.5c-4.5-1.5-7.3-2.8-8.4-3.8c-1.1-1.1-1.6-2.3-1.6-3.7c0-1.7,0.7-3,2-4c1.3-1,3-1.5,5.1-1.5
			c1.3,0,2.4,0.2,3.4,0.6c1,0.4,1.9,0.9,2.6,1.7c0.8,0.7,1.5,1.8,2.2,3.2l5.8-2.4c-1.1-2.3-2.3-4-3.5-5.2c-1.2-1.2-2.7-2.1-4.4-2.7
			c-1.7-0.6-3.7-0.9-5.8-0.9c-4.1,0-7.4,1.1-10,3.3c-2.6,2.2-3.9,5-3.9,8.3c0,2.9,0.9,5.3,2.8,7.3c1.8,2,5.1,3.8,9.8,5.3
			c3.8,1.3,6.3,2.5,7.7,3.7c1.4,1.2,2,2.7,2,4.3c0,2-0.7,3.7-2.2,4.9c-1.5,1.2-3.4,1.9-5.8,1.9c-1.5,0-2.9-0.3-4.1-0.8
			c-1.2-0.5-2.2-1.3-3.1-2.3c-0.8-1-1.8-2.7-2.8-5.1l-5.9,2.4c1.3,3.2,2.6,5.5,3.8,7c1.3,1.4,2.9,2.6,4.9,3.4c2,0.8,4.2,1.2,6.8,1.2
			c4.3,0,7.9-1.1,10.7-3.4c2.8-2.3,4.2-5.4,4.2-9.3c0-3.1-1-5.7-3-7.9C1174.9,1223.7,1171.9,1221.9,1167.7,1220.5z"/>
		<path class="st2" d="M1194.7,1241c-1.3,0-2.3-0.4-2.9-1.2c-0.7-0.8-1-2-1-3.6v-15.9h7.5v-5.4h-7.5v-8.5h-6.5v8.5h-5.1v5.4h5.1
			v17.1c0,2.9,0.8,5.2,2.5,6.8c1.6,1.6,3.8,2.4,6.6,2.4c0.8,0,1.5-0.1,2.2-0.1c0.6-0.1,1.6-0.3,2.8-0.7v-5.5
			c-1.2,0.4-2.1,0.6-2.5,0.7C1195.4,1240.9,1195.1,1241,1194.7,1241z"/>
		<path class="st2" d="M1221,1232.3c0,2.4-0.8,4.5-2.3,6.2c-1.5,1.7-3.4,2.6-5.7,2.6c-2.1,0-3.8-0.7-4.9-2c-1.1-1.3-1.7-3.2-1.7-5.7
			v-18.6h-6.5v19.6c0,3.9,1,6.8,3,8.9c2,2.1,4.8,3.1,8.4,3.1c2.1,0,4.1-0.5,5.9-1.5c1.8-1,3.2-2.3,4-3.8h0.2v4.3h6.1v-30.7h-6.5
			V1232.3z"/>
		<path class="st2" d="M1253.9,1219.1h-0.1c-0.9-1.5-2.3-2.8-4.1-3.7c-1.8-1-3.8-1.4-5.9-1.4c-4.2,0-7.7,1.5-10.5,4.6
			c-2.8,3-4.2,7-4.2,11.7c0,4.8,1.4,8.7,4.1,11.7c2.8,3,6.2,4.5,10.4,4.5c2.2,0,4.3-0.5,6.1-1.4c1.9-0.9,3.3-2.2,4.3-3.8l0.1,0v4.3
			h6.2v-42.9h-6.4V1219.1z M1251.5,1237.9c-1.8,2-4,3-6.6,3c-2.6,0-4.9-1-6.7-3c-1.8-2-2.7-4.6-2.7-7.7c0-3.1,0.9-5.7,2.7-7.6
			c1.8-2,4-2.9,6.7-2.9c2.6,0,4.8,1,6.6,2.9c1.8,2,2.7,4.5,2.7,7.6S1253.2,1235.9,1251.5,1237.9z"/>
		<path class="st2" d="M1267.4,1201.1c-1.1,0-2.1,0.4-2.9,1.1c-0.8,0.8-1.2,1.7-1.2,2.8c0,1.1,0.4,2.1,1.2,2.9
			c0.8,0.8,1.7,1.2,2.9,1.2c1.2,0,2.1-0.4,2.9-1.2c0.7-0.8,1.1-1.7,1.1-2.9c0-1.1-0.4-2.1-1.1-2.8
			C1269.5,1201.5,1268.5,1201.1,1267.4,1201.1z"/>
		<rect x="1264.1" y="1214.9" class="st2" width="6.5" height="30.7"/>
		<path class="st2" d="M1300.3,1218.5c-3.1-3.1-6.9-4.6-11.5-4.6c-4.6,0-8.5,1.5-11.5,4.6c-3.1,3.1-4.6,7-4.6,11.7
			c0,4.7,1.5,8.6,4.6,11.7c3,3.1,6.9,4.6,11.6,4.6c4.7,0,8.5-1.5,11.6-4.6c3-3.1,4.6-7,4.6-11.7
			C1304.9,1225.5,1303.4,1221.6,1300.3,1218.5z M1295.7,1237.9c-1.9,2-4.2,3-6.9,3c-2.8,0-5.1-1-7-3c-1.9-2-2.8-4.5-2.8-7.7
			c0-3.1,0.9-5.7,2.8-7.6c1.9-2,4.2-2.9,6.9-2.9c2.7,0,5,1,6.9,2.9c1.9,1.9,2.8,4.5,2.8,7.7
			C1298.5,1233.3,1297.5,1235.9,1295.7,1237.9z"/>
		<path class="st2" d="M1319.1,1227.4c-3.3-0.8-5.4-1.5-6.2-2.2c-0.8-0.7-1.2-1.5-1.2-2.5c0-0.9,0.5-1.8,1.6-2.5c1-0.7,2.4-1,4-1
			c1,0,1.9,0.1,2.8,0.3c0.9,0.2,1.6,0.6,2.3,1c0.7,0.5,1.5,1.3,2.5,2.5l4.7-2.9c-1.2-1.8-2.4-3.1-3.6-3.9c-1.1-0.8-2.4-1.4-3.8-1.8
			c-1.4-0.4-3-0.6-4.8-0.6c-3.4,0-6.2,0.8-8.5,2.5c-2.3,1.7-3.5,3.8-3.5,6.5c0,2.4,0.9,4.4,2.7,6c1.8,1.6,4.7,2.8,8.6,3.7
			c3.1,0.7,5,1.3,5.9,2c0.9,0.6,1.3,1.5,1.3,2.6c0,1.3-0.5,2.4-1.6,3c-1.1,0.7-2.5,1-4.4,1c-1.3,0-2.5-0.2-3.5-0.5
			c-1-0.3-1.8-0.8-2.6-1.4c-0.8-0.6-1.7-1.8-2.8-3.5l-4.9,2.9c1.4,2.3,2.7,3.9,3.9,4.9c1.2,1,2.6,1.7,4.2,2.2
			c1.5,0.5,3.3,0.7,5.4,0.7c3.7,0,6.8-0.9,9.1-2.7c2.4-1.8,3.5-4.1,3.5-7c0-2.2-0.8-4.1-2.5-5.7
			C1326,1229.6,1323.2,1228.3,1319.1,1227.4z"/>
		<path class="st2" d="M1349.3,1227.4c-0.2,0.2-0.5,0.3-0.8,0.4c-0.3,0.1-0.6,0.1-0.9,0.1c-0.7,0-1.4-0.3-1.9-0.8
			c-0.5-0.6-0.8-1.3-0.8-2.2c0-0.9,0.3-1.6,0.8-2.1c0.5-0.5,1.1-0.8,1.9-0.8c0.3,0,0.6,0,0.9,0.1c0.3,0.1,0.5,0.2,0.7,0.4
			c0.2,0.2,0.4,0.5,0.7,1l2-0.8c-0.4-0.8-0.8-1.4-1.2-1.7c-0.4-0.3-0.9-0.6-1.4-0.8c-0.5-0.2-1.1-0.3-1.7-0.3
			c-1.5,0-2.7,0.5-3.6,1.4c-0.9,0.9-1.4,2.1-1.4,3.6c0,1.5,0.5,2.7,1.4,3.6c0.9,0.9,2.1,1.4,3.6,1.4c0.7,0,1.3-0.1,1.8-0.3
			c0.6-0.2,1-0.5,1.4-0.8c0.4-0.4,0.8-0.9,1.1-1.7l-2-0.7C1349.8,1226.9,1349.5,1227.2,1349.3,1227.4z"/>
		<path class="st2" d="M1347.5,1215.8c-2.6,0-4.8,0.9-6.6,2.7c-1.8,1.8-2.7,3.9-2.7,6.5c0,2.6,0.9,4.7,2.7,6.5
			c1.8,1.8,4,2.7,6.6,2.7s4.8-0.9,6.6-2.7c1.8-1.8,2.7-3.9,2.7-6.5c0-2.6-0.9-4.7-2.7-6.5
			C1352.2,1216.7,1350.1,1215.8,1347.5,1215.8z M1352.4,1230c-1.4,1.4-3,2.1-5,2.1c-2,0-3.6-0.7-5-2.1c-1.3-1.4-2-3-2-5
			c0-2,0.7-3.6,2-5c1.3-1.4,3-2.1,5-2.1c2,0,3.6,0.7,5,2.1c1.4,1.4,2,3,2,5C1354.5,1226.9,1353.8,1228.6,1352.4,1230z"/>
		<path class="st2" d="M1362.7,1240.9l7.4-7.8c1.6-1.7,2.8-3.3,3.6-4.7c0.8-1.5,1.1-3,1.1-4.4c0-2.4-0.8-4.4-2.4-5.9
			c-1.6-1.5-3.7-2.2-6.2-2.2c-1.5,0-2.8,0.2-3.8,0.6c-1,0.4-1.9,1-2.7,1.7c-0.8,0.7-1.6,2-2.6,4l3.7,1.7c0.7-1.3,1.3-2.1,1.8-2.5
			c0.5-0.4,0.9-0.8,1.5-1c0.5-0.2,1.2-0.3,1.9-0.3c1.4,0,2.4,0.4,3.2,1.2c0.8,0.8,1.2,1.8,1.2,3.1c0,1-0.3,2-0.8,3.1
			c-0.6,1-1.5,2.3-2.8,3.7l-9.5,10.2v3.9h18v-4h-12.4L1362.7,1240.9z"/>
		<path class="st2" d="M1387.2,1215.8c-3.4,0-6.1,1.4-8.1,4.1c-2,2.7-3,6.3-3,10.7c0,4.4,1,8,3,10.8c2,2.8,4.7,4.1,8.1,4.1
			c3.4,0,6.1-1.4,8.1-4.1c2-2.8,3-6.3,3-10.8c0-4.4-1-8-3-10.7C1393.3,1217.2,1390.6,1215.8,1387.2,1215.8z M1392.2,1238.6
			c-1.2,1.9-2.8,2.9-5,2.9c-2.1,0-3.8-1-4.9-2.9c-1.2-1.9-1.8-4.6-1.8-7.9c0-3.3,0.6-6,1.8-7.9c1.2-1.9,2.8-2.9,4.9-2.9
			c2.1,0,3.8,1,5,2.9c1.2,1.9,1.8,4.5,1.8,7.9C1393.9,1234,1393.4,1236.7,1392.2,1238.6z"/>
		<path class="st2" d="M1404.6,1240.9l7.4-7.8c1.6-1.7,2.8-3.3,3.6-4.7c0.8-1.5,1.1-3,1.1-4.4c0-2.4-0.8-4.4-2.4-5.9
			c-1.6-1.5-3.7-2.2-6.2-2.2c-1.5,0-2.8,0.2-3.8,0.6c-1,0.4-1.9,1-2.7,1.7c-0.8,0.7-1.6,2-2.6,4l3.7,1.7c0.7-1.3,1.3-2.1,1.8-2.5
			c0.5-0.4,0.9-0.8,1.5-1c0.5-0.2,1.2-0.3,1.9-0.3c1.4,0,2.4,0.4,3.2,1.2c0.8,0.8,1.2,1.8,1.2,3.1c0,1-0.3,2-0.8,3.1
			c-0.6,1-1.5,2.3-2.8,3.7l-9.5,10.2v3.9h18v-4h-12.4L1404.6,1240.9z"/>
		<path class="st2" d="M1435.2,1229.4c-1.7-1.7-3.8-2.5-6.2-2.5c-1,0-1.9,0.1-2.8,0.4l6.7-9.1l-3.5-2.4l-6.6,9.1
			c-1.4,1.9-2.6,3.8-3.6,5.6c-1,1.8-1.4,3.6-1.4,5.5c0,2.8,0.9,5.1,2.8,7c1.9,1.8,4.2,2.7,7.1,2.7c2.9,0,5.2-0.9,7.1-2.8
			c1.9-1.9,2.8-4.2,2.8-7C1437.7,1233.2,1436.9,1231,1435.2,1229.4z M1431.9,1240c-1,1-2.4,1.6-4,1.6c-1.6,0-3-0.5-4.1-1.6
			c-1.1-1-1.6-2.4-1.6-4c0-1.6,0.5-2.9,1.6-4c1.1-1,2.4-1.6,4.1-1.6c1.6,0,2.9,0.5,4,1.6c1,1,1.6,2.4,1.6,3.9
			C1433.4,1237.6,1432.9,1238.9,1431.9,1240z"/>
	</g>
</g>
</svg>
