<?xml version="1.0" encoding="utf-8"?>
<!-- Generator: Adobe Illustrator 27.6.1, SVG Export Plug-In . SVG Version: 6.00 Build 0)  -->
<svg version="1.1" xmlns="http://www.w3.org/2000/svg" xmlns:xlink="http://www.w3.org/1999/xlink" x="0px" y="0px"
	 viewBox="0 0 1699.4 2778.2" style="enable-background:new 0 0 1699.4 2778.2;" xml:space="preserve">
<style type="text/css">
	.st0{fill:#019C63;}
	.st1{fill:#FCD800;}
	.st2{fill:#A4C7FF;}
	.st3{fill:#FD5001;}
	.st4{fill:#FEBEE1;}
	.st5{fill:#231F20;}
	.st6{display:none;}
	.st7{fill:#FFFFFF;}
</style>
<g id="Layer_1">
	<polygon class="st0" points="1062,2244.2 887.3,2528.3 1062,2244.2 	"/>
	<polygon class="st0" points="882.1,2527.2 1057.4,2242.1 1057.4,2242.1 	"/>
	<polygon class="st0" points="0,0 0,184.4 113.5,0 	"/>
	<polygon class="st0" points="1507.6,2778.2 1701.2,2778.2 1701.2,2542.5 1663.4,2524.8 	"/>
	<polygon class="st0" points="64.8,2606.6 361.1,2744.8 64.8,2606.6 	"/>
	<polygon class="st0" points="608.9,101.7 480.7,41.9 608.9,101.7 	"/>
	<polygon class="st0" points="578.6,2391.1 578.6,2391.1 361.1,2744.8 	"/>
	<polygon class="st0" points="883.9,2533.6 733.5,2778.2 1114.8,2778.2 1180.2,2671.8 	"/>
	<polygon class="st0" points="1598.7,102.9 1449.2,346.1 1449.2,346.1 1598.8,102.8 1378.4,0 1378.3,0 	"/>
	<polygon class="st0" points="1120.6,2778.2 1408.3,2778.2 1184.7,2673.9 	"/>
	<polygon class="st0" points="500.6,0 402.7,0 478.8,35.5 	"/>
	<polygon class="st0" points="611.5,97.4 671.5,0 506.4,0 483.3,37.6 	"/>
	<polygon class="st0" points="1182.9,2667.6 1358.2,2382.5 1358.2,2382.5 	"/>
	<polygon class="st0" points="476,39.8 390.7,0 119.3,0 0,193.9 0,272.8 258.6,393.5 	"/>
	<polygon class="st0" points="154.9,1821 0,2072.9 0,2073.1 155,1821 	"/>
	<polygon class="st0" points="255.9,397.8 38.4,751.5 256,397.7 0,278.3 0,278.3 	"/>
	<polygon class="st0" points="581.3,2386.8 664.9,2250.8 581.3,2386.8 	"/>
	<polygon class="st0" points="0,739 0,813.9 35.8,755.7 	"/>
	<polygon class="st0" points="1603.3,105 1453.7,348.2 1453.7,348.2 	"/>
	<polygon class="st0" points="159.6,1823.1 159.5,1823.1 0,2082.5 0,2082.6 	"/>
	<polygon class="st0" points="1662,0 1390,0 1601.4,98.6 	"/>
	<polygon class="st0" points="887.7,0 707.4,0 847.5,65.4 	"/>
	<polygon class="st0" points="0,2115.7 0,2115.7 280.4,2246.5 	"/>
	<polygon class="st0" points="1667.9,0 1606,100.7 1701.2,145.1 1701.2,0 	"/>
	<polygon class="st0" points="1187.5,2669.7 1362.8,2384.6 1362.7,2384.6 1187.4,2669.7 1420,2778.2 1420,2778.2 	"/>
	<polygon class="st0" points="365.7,2747 583.2,2393.4 583.1,2393.3 365.6,2747 432.5,2778.2 432.6,2778.2 	"/>
	<polygon class="st0" points="62.1,2610.9 0,2711.9 0,2778.2 340.5,2778.2 358.4,2749.1 	"/>
	<polygon class="st0" points="346.4,2778.2 420.6,2778.2 362.9,2751.3 	"/>
	<polygon class="st0" points="1148.3,205.7 1274.8,0 893.5,0 852,67.5 	"/>
	<polygon class="st0" points="0,2581.9 0,2702.5 57.6,2608.8 	"/>
	<polygon class="st0" points="277.8,2250.8 277.8,2250.7 0,2121.1 0,2121.2 	"/>
	<polygon class="st0" points="0,2082.6 0,2115.7 280.4,2246.5 455.8,1961.3 159.6,1823.1 	"/>
	<polygon class="st0" points="460.3,1963.5 285,2248.6 581.3,2386.8 664.9,2250.8 756.6,2101.7 	"/>
	<polygon class="st0" points="1187.5,2669.7 1420,2778.2 1502,2778.2 1659,2522.8 1362.8,2384.6 	"/>
	<polygon class="st0" points="761.2,2103.9 585.8,2389 882.1,2527.2 1057.4,2242.1 	"/>
	<polygon class="st0" points="1062,2244.2 887.3,2528.3 886.6,2529.4 1182.9,2667.6 1358.2,2382.5 	"/>
	<polygon class="st0" points="583.2,2393.4 365.7,2747 432.6,2778.2 727.7,2778.2 879.4,2531.5 	"/>
	<path class="st0" d="M580.4,147.8c0.1-0.1,0.2-0.3,0.3-0.4l28.1-45.7L480.7,41.9L263.1,395.6L391,455.3l122.4-198.8L580.4,147.8z"
		/>
	<polygon class="st0" points="1598.7,102.9 1378.3,0 1280.7,0 1152.9,207.9 1449.2,346.1 	"/>
	<polygon class="st0" points="1453.7,348.2 1701.2,463.7 1701.2,150.7 1603.3,105 	"/>
	<path class="st0" d="M222,729.8c-5.3-5.8-11.8-10.7-19.2-14.1c-9.7-4.5-21-3.8-30,2c-9.1,5.8-14.5,15.6-14.5,26.4v63.3l12.3,5.8
		L222,729.8z"/>
	<path class="st0" d="M161.9,700.5c14.9-9.5,33.4-10.7,49.5-3.2c8,3.7,15.3,8.8,21.5,14.7l155.5-252.5l-127.9-59.6L43,753.6l95,44.3
		V744C138,726.3,146.9,710,161.9,700.5z"/>
	<polygon class="st0" points="0,2072.9 154.9,1821 0,1748.7 	"/>
	<polygon class="st0" points="277.8,2250.8 0,2121.2 0,2576.4 60.3,2604.5 	"/>
	<polygon class="st0" points="255.9,397.8 0,278.3 0,733.6 38.4,751.5 	"/>
	<polygon class="st0" points="64.8,2606.6 361.1,2744.8 578.6,2391.1 282.3,2252.9 	"/>
	<path class="st0" d="M158.3,813v0.4c2.8,2.2,5.4,4.7,7.8,7.2l1.9-3.1L158.3,813z"/>
	<path class="st0" d="M155,838.6c-5.8-7.3-13.2-13.4-22-17.4c-9.7-4.5-21-3.8-30,2c-9.1,5.8-14.5,15.6-14.5,26.4v73.2
		c0,5.6-4.5,10.1-10.1,10.1c-5.6,0-10.1-4.5-10.1-10.1v-73.2c0-17.7,8.9-34,23.9-43.5c10.7-6.8,23.3-9.3,35.5-7.4l-87.4-40.8
		L0,823.5v266.9L155,838.6z"/>
	<g>
		<path class="st1" d="M517.7,259.3l-122,198.1l-2.6,4.3L236.6,715.8c13.5,14.7,21.5,34.2,21.5,54.8v39c13.7-19.6,25-40.7,33.6-63.3
			l5.5-14.5c14-36.9,34.9-70,62.1-98.6L370,622c26.7-28.1,47.3-60.7,61.1-96.9l5.5-14.5c3.1-8.1,6.5-16,10.3-23.8
			c0.7-1.5,1.5-3,2.2-4.5c13-25.7,29.6-49.2,49.6-70.3l16.4-17.2c23-24.1,41.5-51.8,55.1-82.3l9.8-22.1V158.2L517.7,259.3z"/>
		<path class="st1" d="M175.3,815.4l-2.6,4.3l-3,4.9c11.8,14.3,18.7,32.5,18.7,51.6v17.5c9.3-13.9,19.8-27,31.5-39.3l8.4-8.8
			l2.3-2.4c0.5-0.5,0.9-1,1.3-1.4c2-2.1,3.9-4.3,5.9-6.4v-64.7c0-13.4-4.5-26.2-12.4-36.6L175.3,815.4z"/>
		<path class="st1" d="M0,1100.1v94.1v0v5.4v18c2.5-4.8,4.8-9.7,7-14.7c0.7-1.5,1.3-3,1.9-4.5c0,0,0,0,0,0c1.4-3.2,2.7-6.5,3.9-9.7
			l5.5-14.5c14-36.9,34.9-70,62.1-98.6l10.7-11.2c26.7-28.1,47.3-60.7,61.1-96.9l5.5-14.5c3.1-8.1,6.5-16,10.2-23.7v-53.2
			c0-11.9-3.5-23.3-9.8-32.9L0,1100.1z"/>
	</g>
	<g>
		<polygon class="st2" points="1451.1,352.6 1451,352.5 1446.5,350.5 1446.5,350.4 1150.2,212.2 1150.2,212.2 1145.6,210.1 
			849.4,71.8 844.9,69.7 695.4,0 681.5,-6.5 677.5,0 616.1,99.6 613.5,103.9 613.5,103.9 586.2,148.1 690.6,196.8 749.7,224.4 
			749.7,224.4 754.3,226.5 1050.5,364.7 1050.6,364.8 1055.1,366.9 1055.1,366.9 1351.4,505.1 1351.4,505.1 1355.9,507.2 
			1355.9,507.2 1652.2,645.5 1656.7,647.6 1656.7,647.6 1701.2,668.3 1701.2,611.5 1701.2,611.4 1701.2,605.9 1701.2,605.9 
			1701.2,575.4 1701.2,565.7 1701.2,469.3 		"/>
		<path class="st2" d="M1615.4,714.8L1615.4,714.8l-4.3-2.6L1506.5,649c-18.2-11-37.7-20-57.9-26.8l-135.5-45.4h0l-4.8-1.6l0,0
			l-25.3-8.5c-20.5-6.9-40.3-16-58.9-27.2l-149.6-90.4c-17.1-10.3-35.4-18.9-54.3-25.5c0,0,0,0,0,0c-1.2-0.4-2.4-0.9-3.6-1.3
			l-1.2-0.4l-0.1,0l-165.7-55.5c-19.8-6.6-38.8-15.4-56.7-26l-79.7-47.3l-4.3-2.6l-0.1,0l-60.1-35.6c-9.5-5.7-21.1-7-31.7-3.6
			c-10.6,3.4-19.2,11.1-23.8,21.3l-18.6,41.8c-13.8,31-32.6,59.2-56,83.8l-16.4,17.2c-19.7,20.7-36,43.8-48.8,69.1
			c-0.8,1.5-1.5,3-2.2,4.5c-3.7,7.6-7.1,15.4-10.1,23.4l-5.5,14.5c-14,36.9-34.9,70-62.1,98.6L363,636.6
			c-26.7,28.1-47.3,60.7-61.1,96.9l-5.5,14.5c-9.6,25.3-22.4,48.8-38.3,70.3V854v5.5v4.2c-0.1,5.6-4.6,10.1-10.2,10.1
			s-10.1-4.5-10.1-10.1V850v-5.5v-1.7c-0.4,0.4-0.7,0.8-1.1,1.2c-0.8,0.9-1.6,1.8-2.4,2.6l-1.2,1.2l-9.5,10
			c-13.3,14-25,29-35.2,45.1v66.4c-0.2,5.5-4.7,10-10.3,10c-5.6,0-10.1-4.5-10.1-10.1v-27.9c-1.9,4.4-3.8,8.9-5.5,13.4l-5.5,14.5
			c-14,36.9-34.9,70-62.1,98.6L84.2,1079c-26.7,28.1-47.3,60.7-61.1,96.9l-5.5,14.5c-1.3,3.4-2.7,6.8-4.1,10.2c0,0,0,0,0,0
			c-0.6,1.5-1.3,3-1.9,4.5c-3.5,8-7.4,15.7-11.6,23.3v215.1v9.5v0.1v158.8v0l220.4,102.8l0,0l4.5,2.1h0l296.3,138.2l4.5,2.1l0,0
			L822,1995.4l0,0l4.6,2.1l269.9,125.9l26.3,12.3l0,0l4.6,2.2l296.3,138.2h0l4.5,2.1l0,0l273,127.4v-412v-0.1v-5.4v-0.1v-153.6v0
			v-9.5v0v-291.9v0v-5.5v0v-322.5v0v-9.5v-0.1v-123.2v-0.1v-5.4v0V761.7c-15.6-6.1-30.7-13.5-45.1-22.3L1615.4,714.8z
			 M1341.4,1448.3c2.4,2.4,5.6,4.1,8.5,5.6c4.7,2.4,8.7,4.2,12.9,4.6c1.4,0.2,2.4,1.4,2.2,2.8c-0.1,1.3-1.2,2.2-2.5,2.2
			c-0.1,0-0.2,0-0.3,0c-5.5-0.6-10.5-3-14.7-5.2c-3.2-1.6-6.8-3.6-9.7-6.5c-3.4-3.3-5.3-7.4-5.3-11.4c-0.1-4,1.8-7.9,4.9-10.5
			c1.1-0.9,2.7-0.7,3.6,0.4c0.9,1.1,0.7,2.7-0.4,3.6c-1.9,1.6-3.1,4-3,6.5C1337.6,1443,1339,1445.9,1341.4,1448.3z M1437.2,1409.6
			c-0.4-0.7-0.4-1.6-0.1-2.4c0.6-1.2,2.2-1.7,3.4-1.1c4.8,2.5,9.7,6.6,13.9,11.5c0,0,0.1,0.1,0.1,0.1c5.4,6.5,9.3,14.3,9.7,22.1
			c0.1,1.4-1,2.6-2.4,2.7c-0.1,0-0.1,0-0.2,0c-1.3,0-2.5-1-2.5-2.4c-0.6-11.7-11.3-24.4-20.9-29.5
			C1437.8,1410.4,1437.5,1410.1,1437.2,1409.6C1437.2,1409.7,1437.2,1409.6,1437.2,1409.6z M1329.1,1488.4c0.8-1.2,2.3-1.5,3.5-0.7
			c7.3,4.7,15.7,7.3,24.4,7.6c1.4,0,2.5,1.2,2.5,2.6c-0.1,1.3-1.2,2.4-2.6,2.4c-9.7-0.3-19-3.2-27.1-8.4
			C1328.6,1491.1,1328.3,1489.6,1329.1,1488.4z M1413.6,1414.8c0.5-1.3,2-2,3.3-1.5c7.8,3,14.5,9.1,18.2,16.6
			c0.6,1.3,0.1,2.8-1.1,3.4c-0.3,0.2-0.7,0.3-1.1,0.3c-0.9,0-1.8-0.5-2.3-1.4c-3.2-6.4-8.9-11.5-15.5-14.1
			C1413.8,1417.6,1413.1,1416.1,1413.6,1414.8z M1416.9,1449.9c3.5-3.3,5.1-8.2,3.8-11.9c-0.5-1.3,0.2-2.8,1.6-3.2
			c1.3-0.5,2.8,0.2,3.2,1.6c2,5.7-0.1,12.6-5.1,17.3c-3.8,3.5-9,5.8-15.9,7c-0.2-0.1-0.3-0.1-0.5-0.1c-1.2,0-2.3-0.9-2.5-2.1
			c-0.2-1.4,0.7-2.7,2.1-2.9C1409.5,1454.6,1413.9,1452.7,1416.9,1449.9z M1405.2,1472.5c12-3.4,19.9-8.7,23.7-15.9
			c0.6-1.2,2.2-1.7,3.4-1.1c1.2,0.6,1.7,2.2,1.1,3.4c-4.4,8.4-13.4,14.6-26.8,18.4c-9.6,2.7-19.3,4.1-29.1,4.1
			c-3.5,0-7-0.2-10.5-0.5c-1.4-0.1-2.4-1.4-2.3-2.8c0.1-1.4,1.4-2.4,2.8-2.3C1380,1477,1393.1,1475.9,1405.2,1472.5z M1332.9,1466.6
			c1.3,0.4,2.1,1.9,1.6,3.2c-0.4,1.2-1.4,1.8-2.5,1.8c-0.3,0-0.5,0-0.8-0.1c-9.7-3.2-17.6-11.2-20.5-21c-0.4-1.3,0.4-2.8,1.7-3.2
			c1.3-0.4,2.8,0.4,3.2,1.7C1318.1,1457.2,1324.7,1464,1332.9,1466.6z M1312.7,1518.5c-0.2,1.4-1.2,2.3-2.5,2.3c-0.1,0-0.2,0-0.3,0
			c-24.7-3.3-47.4-20-57.9-42.6c-0.6-1.3,0-2.8,1.2-3.4c1.3-0.6,2.8,0,3.4,1.2c9.7,21.1,30.9,36.6,53.9,39.7
			C1311.9,1515.9,1312.9,1517.2,1312.7,1518.5z M1083.9,1569.7c-17.1-9.4-30.5-24.6-38.2-42.6c-0.5-1.3,0.1-2.8,1.4-3.3
			s2.8,0.1,3.3,1.4c7.2,17,19.9,31.2,36.1,40.2c0,0,0,0,0,0c0.3,0.2,0.6,0.4,0.9,0.5c1.2,0.7,1.7,2.2,1,3.4
			c-0.4,0.8-1.3,1.3-2.2,1.3c-0.4,0-0.8-0.1-1.2-0.3C1084.6,1570.1,1084.2,1569.9,1083.9,1569.7
			C1083.9,1569.7,1083.9,1569.7,1083.9,1569.7z M1406.9,1390c-0.1,1.3-0.2,2.6-0.2,4c0,0.5,0,0.9,0,1.4c0,0,0,0,0,0.1
			c-0.6,16.2,0.5,32.7,1.4,48.6c0.1,0.9-0.4,1.9-1.2,2.3c-0.3,0.1-13.9,7.9-30.3,7.9c-9.6,0-20.2-2.7-29.7-11.3
			c-0.6-0.5-0.9-1.3-0.8-2.1c0.8-10.5,1.6-21.2,1.1-31.7c-4.7,0.6-8.9,1.8-12.5,3.7c-4.3,2.2-9.5,5.4-11.6,10.3
			c-0.5,1.1-1.4,1.6-2.4,1.6c-0.3,0-0.7-0.1-1-0.2c-1.3-0.6-1.9-2-1.3-3.3c2.7-6.3,8.9-10.2,13.9-12.8c4.3-2.2,9.2-3.7,14.7-4.4
			c-0.4-5.7-1.3-11.3-2.8-16.8c-1.8-6.7-4.5-13.4-7.2-19.8c-0.8-1.8-1.5-3.7-2.3-5.6c0,0,0,0,0,0c-0.9-2.2-1.8-4.5-2.6-6.7
			c0,0,0,0,0-0.1c-0.6-1.6-1.1-3.3-1.7-4.9c-5.4-17.7-5.7-36.2-6-54.1c-0.1-7.3,2.7-12,7.4-12.4c4.3-0.4,7.7,3,9.5,9.6
			c2.7,9.7,5.4,19.4,8.1,29.1c0.4-22.2-1.6-45.8-5.7-67.8c-1.3-7,0.6-11.9,5-13c4.2-1.1,8.1,2,10.5,8.1c4.6,11.7,8.2,23.8,10.8,36.1
			c-0.3-12.3-1.3-24.6-3-36.6c-1-7.1,1.1-11.9,5.6-12.8c4.2-0.9,8,2.4,10.1,8.6c2.7,7.9,4.9,15.9,6.7,24.1
			c-0.1-4.7-0.3-9.3-0.6-13.9c-0.5-7.1,1.9-11.8,6.5-12.4c4.3-0.6,7.8,2.9,9.5,9.2c0.4,1.4,0.7,2.7,1,4.1c1-0.9,2.2-1.4,3.6-1.5
			c4.3-0.5,7.7,3.1,9.2,9.5c4.4,18.5,6.4,37.5,6.1,56.6c-0.2,10-0.8,17.9-3.6,26.4c-2,6-4.4,11.9-6.7,17.6c-1.1,2.7-2.2,5.4-3.3,8.2
			c-1.2,3.1-2.6,6.8-3.4,10.5C1407.4,1385.4,1407.1,1387.6,1406.9,1390C1406.9,1390,1406.9,1390,1406.9,1390z M1622.3,1431.4
			c-1-1-1-2.6,0-3.6s2.6-1,3.6,0c9.5,9.8,14.3,24.2,12.4,37.8c-0.1,1.3-1.2,2.2-2.4,2.2c-0.1,0-0.2,0-0.4,0
			c-1.4-0.2-2.3-1.5-2.2-2.9C1635,1452.9,1630.8,1440.1,1622.3,1431.4z"/>
	</g>
	<path class="st3" d="M1654.1,651.9L1654.1,651.9l-4.5-2.1l-296.3-138.2l-4.5-2.1l0,0l-296.3-138.2l0,0l-4.5-2.1l-0.1,0L751.6,230.9
		l-4.6-2.1l-0.1,0l-58.5-27.3l-103.4-48.3v0.1v125.6l3.7-8.3c5.1-11.5,14.9-20.2,26.8-24.1c4.4-1.4,8.9-2.1,13.4-2.1
		c7.8,0,15.6,2.1,22.4,6.1l60.2,35.7l0.1,0l4.3,2.6l79.5,47.2c17.6,10.4,36.4,19,55.8,25.5l166.8,55.9l0.1,0l0,0
		c1.6,0.5,3.2,1.1,4.8,1.7c0,0,0,0,0,0c18.8,6.7,37,15.2,54.1,25.6l149.6,90.4c18.2,11,37.7,20,57.9,26.8l26.4,8.8l0,0l4.8,1.6l0,0
		l134.5,45c20.5,6.9,40.3,16,58.9,27.2l104.6,63.2l4.2,2.6l0,0l40.7,24.6c13.5,8.2,27.7,15.2,42.4,21.1V674v-0.1L1654.1,651.9z"/>
	<g>
		<path class="st4" d="M160.1,1735.1c-0.3-2-0.7-3.9-1.3-5.9c0,0,0-0.1,0-0.1c0,0,0,0,0,0c-3-9.8-10-17.9-19.3-22.2L0,1641.8v13.2
			v0.1v5.4v0v61.1l108.8,50.8c16.7,7.8,36.5,1.8,46.2-13.8C159.3,1751.5,161.1,1743.2,160.1,1735.1
			C160.1,1735.1,160.1,1735.1,160.1,1735.1z"/>
		<path class="st4" d="M1413.7,1265.3c-0.7-2.8-2.1-5.8-3.8-5.6c-1.5,0.2-2,2.8-2.2,4.3c0,0,0,0,0,0c4.3,21.1,5.7,42.7,4,64.1
			c-0.1,1.3-1.3,2.3-2.6,2.3c-0.1,0-0.1,0-0.2,0c-1.4-0.1-2.4-1.3-2.3-2.7c1.6-20.7,0.3-41.5-3.7-61.9c-0.1-0.2-0.2-0.4-0.3-0.6
			c-0.8-3.8-1.7-7.8-2.7-11.8c-0.7-2.8-2.3-5.7-3.9-5.5c-1.8,0.2-2.3,3.8-2.1,7c1,14.4,1,29.1,0.1,43.8c0.6,7.1,0.9,14.4,0.9,21.7
			c0,1.4-1.1,2.5-2.5,2.5c-1.4,0-2.5-1.2-2.5-2.6c0.1-7-0.2-14-0.9-20.9c0-0.1,0-0.2,0-0.3c-1.6-17.9-5.3-35.5-11-52.4
			c-0.9-2.7-2.7-5.5-4.3-5.2c-1.7,0.4-2.1,3.9-1.6,7.1c3.1,22.5,4,46.4,2.4,69c0.2,2.3,0.3,4.6,0.4,6.8c0.1,1.4-1,2.6-2.5,2.7
			c-1.4,0-2.5-1.1-2.5-2.4c-0.1-2.2-0.2-4.5-0.4-6.7c0,0,0-0.1,0-0.1c-1.6-22.7-6.6-45-14.9-66.3c-1.1-2.7-2.9-5.4-4.5-5
			c-1.6,0.4-1.9,3.9-1.3,7.2c5.2,27.7,7,57.9,5,84.9c-0.1,1.2-1,2.2-2.3,2.3c-1.2,0.1-2.4-0.7-2.7-1.8c-4.1-14.8-8.3-29.6-12.4-44.5
			c-0.8-3-2.3-6-4.2-5.9c-2,0.2-2.8,3.9-2.7,7.3c0.3,17.5,0.6,35.7,5.8,52.7c0.9,3.1,2,6.2,3.3,9.2c0,0,0,0,0,0.1
			c0.9,2.3,1.9,4.6,2.8,6.8c0,0,0,0,0,0c0.1,0.3,0.2,0.5,0.3,0.8c2.7,6.6,5.5,13.4,7.4,20.5c1.5,5.7,2.4,11.6,2.9,17.4
			c0.1,1.7,0.2,3.3,0.3,5c0.4,10.5-0.3,21-1.1,31.3c20,17.1,45.6,5.7,51.7,2.6c-1-16-2-32.6-1.3-48.9c0-0.2,0-0.4,0-0.6
			c0,0,0,0,0-0.1c0.1-1.7,0.2-3.5,0.3-5.3c0,0,0,0,0-0.1c0.2-1.8,0.4-3.6,0.8-5.4c0.9-4.1,2.3-8,3.6-11.3c1.1-2.8,2.2-5.5,3.3-8.2
			c2.3-5.6,4.7-11.4,6.6-17.2c2.6-7.9,3.2-15.4,3.3-24.9C1419.9,1302,1417.9,1283.4,1413.7,1265.3z"/>
	</g>
	<g>
		<polygon class="st5" points="113.5,0 0,184.4 0,193.9 119.3,0 		"/>
		<path class="st5" d="M1701.2,150.7v-5.6l-95.2-44.4L1667.9,0h-5.8l-60.6,98.6L1390,0h-11.6l220.4,102.8l-149.6,243.3l0,0
			l-296.2-138.2L1280.7,0h0h-6l-126.4,205.7L852,67.5L893.5,0h-5.8l-40.2,65.4L707.4,0l-25.9-12.1c-1.1-0.5-2.5-0.1-3.2,1L671.5,0
			l-60,97.4L483.3,37.6L506.4,0h-5.8l-21.8,35.5L402.7,0h-12L476,39.8L258.6,393.5L0,272.8v5.5l256,119.4L38.4,751.5L0,733.6v5.4
			l35.8,16.7L0,813.9v9.5l40.3-65.5l87.4,40.8c-12.2-1.9-24.8,0.6-35.5,7.4c-15,9.5-23.9,25.8-23.9,43.5v73.2
			c0,5.6,4.5,10.1,10.1,10.1c5.6,0,10.1-4.5,10.1-10.1v-73.2c0-10.8,5.4-20.6,14.5-26.4c9-5.8,20.3-6.5,30-2
			c8.7,4.1,16.2,10.1,22,17.4L0,1090.3v4.4v5.4l158.2-256.9c6.3,9.7,9.8,21.1,9.8,32.9v53.2c-3.7,7.7-7.1,15.6-10.2,23.7l-5.5,14.5
			c-13.8,36.2-34.4,68.8-61.1,96.9l-10.7,11.2c-27.2,28.6-48.1,61.7-62.1,98.6l-5.5,14.5c-1.2,3.3-2.6,6.5-3.9,9.7c0,0,0,0,0,0
			c-0.6,1.5-1.3,3-1.9,4.5c-2.2,5-4.6,9.9-7,14.7v0.2v4.9v0.5v5.1c4.2-7.6,8.1-15.4,11.6-23.3c0.7-1.5,1.3-3,1.9-4.5c0,0,0,0,0,0
			c1.4-3.4,2.8-6.7,4.1-10.2l5.5-14.5c13.8-36.2,34.4-68.8,61.1-96.9l10.7-11.2c27.2-28.6,48.1-61.7,62.1-98.6l5.5-14.5
			c1.7-4.5,3.6-9,5.5-13.4v27.9c0,5.6,4.5,10.1,10.1,10.1c5.6,0,10.1-4.5,10.3-10v-66.4c10.2-16.1,21.9-31.2,35.2-45.1l9.5-10
			l1.2-1.2c0.8-0.9,1.6-1.7,2.4-2.6c0.4-0.4,0.7-0.8,1.1-1.2v1.7v5.5v13.7c0,5.6,4.5,10.1,10.1,10.1s10.1-4.5,10.2-10.1v-4.2V854
			v-35.7c15.9-21.5,28.7-45,38.3-70.3l5.5-14.5c13.8-36.2,34.4-68.8,61.1-96.9l10.7-11.2c27.2-28.6,48.1-61.7,62.1-98.6l5.5-14.5
			c3-8,6.4-15.7,10.1-23.4c0.7-1.5,1.5-3,2.2-4.5c12.8-25.2,29.1-48.4,48.8-69.1l16.4-17.2c23.4-24.6,42.2-52.8,56-83.8l18.6-41.8
			c4.6-10.2,13.2-17.9,23.8-21.3c10.6-3.4,22.2-2.1,31.7,3.6l60.1,35.6l0.1,0l4.3,2.6l79.7,47.3c17.9,10.6,36.9,19.4,56.7,26
			l165.7,55.5l0.1,0l1.2,0.4c1.2,0.4,2.4,0.8,3.6,1.3c0,0,0,0,0,0c18.9,6.6,37.2,15.2,54.3,25.5l149.6,90.4
			c18.6,11.2,38.4,20.3,58.9,27.2l25.3,8.5l0,0l4.8,1.6h0l135.5,45.4c20.2,6.8,39.7,15.8,57.9,26.8l104.6,63.2l4.2,2.6l0,0
			l40.7,24.6c14.4,8.7,29.5,16.2,45.1,22.3v-0.1v-2.2V759v-2.8v-0.1c-14.7-5.9-28.9-12.9-42.4-21.1l-40.7-24.6l0,0l-4.2-2.6
			l-104.6-63.2c-18.6-11.2-38.4-20.3-58.9-27.2l-134.5-45l0,0l-4.8-1.6l0,0l-26.4-8.8c-20.2-6.8-39.7-15.8-57.9-26.8l-149.6-90.4
			c-17.2-10.4-35.3-18.9-54.1-25.6c0,0,0,0,0,0c-1.6-0.6-3.2-1.1-4.8-1.7l0,0l-0.1,0l-166.8-55.9c-19.4-6.5-38.2-15.1-55.8-25.5
			L716,288.8l-4.3-2.6l-0.1,0l-60.2-35.7c-6.8-4-14.6-6.1-22.4-6.1c-4.5,0-9,0.7-13.4,2.1c-11.9,3.9-21.7,12.6-26.8,24.1l-3.7,8.3
			V153.3v-0.1l103.4,48.3l58.5,27.3l0.1,0l4.6,2.1l296.2,138.2l0.1,0l4.5,2.1l0,0l296.3,138.2l0,0l4.5,2.1l296.3,138.2l4.5,2.1l0,0
			l47.1,22v-2.7v-0.1v-2.8v-0.1l-44.5-20.7l0,0l-4.5-2.1l-296.3-138.2h0l-4.5-2.1l0,0l-296.3-138.2l0,0l-4.5-2.1l-0.1,0L754.3,226.5
			l-4.6-2.1l-0.1,0l-59.1-27.6l-104.4-48.7l27.3-44.3l0,0l2.6-4.2L677.5,0l4-6.5L695.4,0l149.5,69.7l4.5,2.1l296.3,138.2l4.5,2.1
			l0.1,0l296.2,138.2l0,0l4.5,2.1l0.1,0l250.1,116.7v-2.8v-2.8l-247.5-115.5l-0.1,0L1603.3,105L1701.2,150.7z M480.7,41.9
			l128.2,59.8l0,0l-28.1,45.7c-0.1,0.1-0.2,0.3-0.3,0.4l-67,108.7L391,455.3l-127.9-59.7L480.7,41.9z M236.6,715.8l156.4-254.1
			l2.6-4.3l122-198.1L580,158.2v132.2l-9.8,22.1c-13.6,30.5-32.1,58.2-55.1,82.3L498.7,412c-20.1,21.1-36.7,44.6-49.6,70.3
			c-0.7,1.5-1.5,3-2.2,4.5c-3.7,7.7-7.2,15.7-10.3,23.8l-5.5,14.5c-13.8,36.2-34.4,68.8-61.1,96.9l-10.7,11.2
			c-27.2,28.6-48.1,61.7-62.1,98.6l-5.5,14.5c-8.6,22.6-19.9,43.8-33.6,63.3v-39C258.1,750,250.1,730.5,236.6,715.8z M170.6,813.2
			l-12.3-5.8v-63.3c0-10.8,5.4-20.6,14.5-26.4c9-5.8,20.3-6.5,30-2c7.4,3.4,13.9,8.3,19.2,14.1L170.6,813.2z M43,753.6l217.5-353.7
			l127.9,59.6L232.9,712c-6.2-6-13.5-11-21.5-14.7c-16.1-7.5-34.6-6.3-49.5,3.2c-15,9.5-23.9,25.8-23.9,43.5v53.9L43,753.6z
			 M158.3,813.3V813l9.7,4.5l-1.9,3.1C163.7,818,161.1,815.6,158.3,813.3z M169.7,824.6l3-4.9l2.6-4.3l50.1-81.4
			c7.9,10.4,12.4,23.2,12.4,36.6v64.7c-1.9,2.2-3.9,4.3-5.9,6.4c-0.4,0.5-0.9,1-1.3,1.4l-2.3,2.4l-8.4,8.8
			c-11.7,12.3-22.2,25.4-31.5,39.3v-17.5C188.4,857.1,181.5,838.8,169.7,824.6z"/>
		<path class="st5" d="M1661.7,2518.4l-296.2-138.2l-0.1,0l-4.5-2.1l-296.2-138.2l0,0l-4.5-2.1l-296.3-138.2l-4.5-2.1l0,0
			L463,1959.1l-4.6-2.1l-296.2-138.2l-0.1,0l-4.5-2.1l-0.1,0L0,1743v2.8v2.8l154.9,72.3l0.1,0L0,2073.1v9.4l159.5-259.4l0.1,0
			l296.2,138.2l-175.4,285.2L0,2115.7v5.4l277.8,129.6l0,0.1L60.3,2604.5L0,2576.4v5.6l57.6,26.9L0,2702.5v9.4l62.1-101l296.3,138.2
			l-17.9,29.1h5.8l16.5-26.9l57.7,26.9h11.9l-66.9-31.2l217.5-353.7l0.1,0l296.2,138.2l-151.7,246.7h5.8l150.4-244.6l296.3,138.2
			l-65.4,106.4h5.8l64.1-104.3l223.6,104.3h11.7l-232.6-108.5l175.3-285.2l0.1,0l296.2,138.2L1502,2778.2h5.6l155.8-253.4l37.8,17.6
			v-2.9v-2.8l-35.1-16.4L1661.7,2518.4z M361.1,2744.8L64.8,2606.6l0,0l217.5-353.7l296.3,138.2h0L361.1,2744.8z M581.3,2386.8
			L581.3,2386.8L285,2248.6l175.3-285.1l296.3,138.2l-91.7,149.1L581.3,2386.8z M882.1,2527.2L585.8,2389l175.4-285.2l296.3,138.2h0
			L882.1,2527.2z M1182.9,2667.6l-296.3-138.2l0.7-1.1l174.7-284.1l0,0l296.2,138.2l0,0L1182.9,2667.6z"/>
		<path class="st5" d="M124.1,1780.8c13.9,0,27.4-7.1,35.2-19.8c4.4-7.1,6.4-15.2,6.1-23.4c0,0,0,0,0,0c-0.1-1.9-0.3-3.8-0.6-5.7
			c0,0,0,0,0,0c-0.3-1.5-0.6-2.9-1.1-4.3c-3.4-11.2-11.4-20.5-22.1-25.5L0,1635.9v2.9v2.9l139.4,65.1c9.3,4.4,16.3,12.4,19.3,22.2
			c0,0,0,0,0,0c0,0,0,0.1,0,0.1c0.6,1.9,1,3.9,1.3,5.9c0,0,0,0,0,0c1,8.1-0.7,16.3-5.1,23.4c-9.7,15.6-29.5,21.6-46.2,13.8L0,1721.5
			v2.8v2.8l106.7,49.8C112.3,1779.5,118.2,1780.8,124.1,1780.8z"/>
		<polygon class="st5" points="1428.2,2278.2 1423.7,2276.1 1423.7,2276.1 1127.4,2137.9 1122.8,2135.8 1122.8,2135.7 
			1096.5,2123.5 826.6,1997.6 822,1995.4 822,1995.4 525.7,1857.2 525.7,1857.2 521.2,1855.1 224.9,1716.8 224.9,1716.8 
			220.4,1714.7 220.4,1714.7 0,1611.9 0,1614.7 0,1614.7 0,1617.5 0,1617.5 217.7,1719.1 217.7,1719.1 222.2,1721.2 222.2,1721.2 
			518.5,1859.4 523,1861.5 523,1861.5 819.3,1999.8 819.3,1999.8 823.9,2001.9 1120.1,2140.1 1120.1,2140.1 1124.7,2142.3 
			1421,2280.5 1421,2280.5 1425.5,2282.6 1425.5,2282.6 1701.2,2411.3 1701.2,2411.2 1701.2,2408.5 1701.2,2408.4 1701.2,2405.6 
			1701.2,2405.6 1428.2,2278.3 		"/>
		<path class="st5" d="M1341.4,1293.2c-1.8-6.6-5.2-10-9.5-9.6c-4.7,0.4-7.5,5.1-7.4,12.4c0.3,17.9,0.6,36.4,6,54.1
			c0.5,1.7,1.1,3.3,1.7,4.9c0,0,0,0,0,0.1c0.8,2.3,1.7,4.5,2.6,6.7c0,0,0,0,0,0c0.7,1.9,1.5,3.7,2.3,5.6c2.7,6.4,5.4,13.1,7.2,19.8
			c1.5,5.5,2.3,11.2,2.8,16.8c0.1,1.7,0.2,3.4,0.3,5.1c0.4,10.6-0.4,21.2-1.1,31.7c-0.1,0.8,0.2,1.6,0.8,2.1
			c9.5,8.6,20.1,11.3,29.7,11.3c16.4,0,30-7.8,30.3-7.9c0.8-0.4,1.3-1.4,1.2-2.3c-1-15.9-2-32.3-1.4-48.6c0,0,0,0,0-0.1
			c0-0.5,0-0.9,0-1.4c0.1-1.4,0.1-2.7,0.2-4c0,0,0-0.1,0-0.1c0.2-2.3,0.4-4.5,0.9-6.6c0.8-3.7,2.2-7.4,3.4-10.5
			c1.1-2.8,2.2-5.5,3.3-8.2c2.3-5.7,4.7-11.6,6.7-17.6c2.8-8.5,3.4-16.4,3.6-26.4c0.3-19.1-1.7-38.1-6.1-56.6
			c-1.5-6.4-4.9-10-9.2-9.5c-1.4,0.1-2.6,0.6-3.6,1.5c-0.3-1.4-0.6-2.7-1-4.1c-1.7-6.3-5.2-9.8-9.5-9.2c-4.6,0.6-7,5.3-6.5,12.4
			c0.3,4.6,0.5,9.2,0.6,13.9c-1.8-8.2-4-16.2-6.7-24.1c-2.1-6.2-5.9-9.5-10.1-8.6c-4.5,0.9-6.6,5.7-5.6,12.8c1.7,12,2.7,24.3,3,36.6
			c-2.6-12.3-6.2-24.4-10.8-36.1c-2.4-6.1-6.3-9.2-10.5-8.1c-4.4,1.1-6.3,6-5,13c4.1,22,6.1,45.6,5.7,67.8
			C1346.8,1312.6,1344.1,1302.9,1341.4,1293.2z M1350.1,1246.6c1.6-0.4,3.4,2.3,4.5,5c8.3,21.3,13.3,43.6,14.9,66.3c0,0,0,0.1,0,0.1
			c0.2,2.2,0.3,4.5,0.4,6.7c0,1.3,1.1,2.4,2.5,2.4c1.5-0.1,2.6-1.3,2.5-2.7c-0.1-2.2-0.2-4.5-0.4-6.8c1.6-22.6,0.7-46.5-2.4-69
			c-0.5-3.2-0.1-6.7,1.6-7.1c1.6-0.3,3.4,2.5,4.3,5.2c5.7,16.9,9.4,34.5,11,52.4c0,0.1,0,0.2,0,0.3c0.7,6.9,0.9,13.9,0.9,20.9
			c0,1.4,1.1,2.6,2.5,2.6c1.4,0,2.5-1.1,2.5-2.5c0-7.3-0.3-14.6-0.9-21.7c0.9-14.7,0.9-29.4-0.1-43.8c-0.2-3.2,0.3-6.8,2.1-7
			c1.6-0.2,3.2,2.7,3.9,5.5c1,4,1.9,8,2.7,11.8c0.1,0.2,0.2,0.4,0.3,0.6c4.1,20.3,5.3,41.1,3.7,61.9c-0.1,1.4,0.9,2.6,2.3,2.7
			c0.1,0,0.1,0,0.2,0c1.3,0,2.5-1,2.6-2.3c1.7-21.4,0.3-43-4-64.1c0,0,0,0,0,0c0.2-1.5,0.7-4.1,2.2-4.3c1.7-0.2,3.1,2.8,3.8,5.6
			c4.2,18.1,6.2,36.7,5.9,55.3c-0.1,9.5-0.7,17-3.3,24.9c-1.9,5.8-4.3,11.6-6.6,17.2c-1.1,2.7-2.2,5.4-3.3,8.2
			c-1.3,3.3-2.7,7.2-3.6,11.3c-0.4,1.8-0.6,3.6-0.8,5.4c0,0,0,0,0,0.1c-0.2,1.8-0.3,3.6-0.3,5.3c0,0,0,0,0,0.1c0,0.2,0,0.4,0,0.6
			c-0.7,16.3,0.3,32.9,1.3,48.9c-6.1,3.1-31.7,14.5-51.7-2.6c0.8-10.3,1.5-20.9,1.1-31.3c-0.1-1.7-0.2-3.4-0.3-5
			c-0.5-5.9-1.4-11.7-2.9-17.4c-1.9-7.1-4.7-13.9-7.4-20.5c-0.1-0.3-0.2-0.5-0.3-0.8c0,0,0,0,0,0c-0.9-2.2-1.9-4.5-2.8-6.8
			c0,0,0,0,0-0.1c-1.2-3.1-2.3-6.1-3.3-9.2c-5.2-17-5.5-35.2-5.8-52.7c-0.1-3.4,0.7-7.1,2.7-7.3c1.9-0.1,3.4,2.9,4.2,5.9
			c4.1,14.9,8.3,29.7,12.4,44.5c0.3,1.1,1.5,1.9,2.7,1.8c1.3-0.1,2.2-1.1,2.3-2.3c2-27,0.2-57.2-5-84.9
			C1348.2,1250.5,1348.5,1247,1350.1,1246.6z"/>
	</g>
</g>
<g id="Layer_2" class="st6">
</g>
<g id="Layer_3">
	<g>
		<path class="st7" d="M1701.2,2448.8v-37.5l-275.7-128.6l0,0l-4.5-2.1h0l-296.3-138.2l-4.6-2.2l0,0l-296.2-138.2l-4.6-2.1l0,0
			L523,1861.5l0,0l-4.5-2.1l-296.3-138.2l0,0l-4.5-2.1l0,0L0,1617.5v18.4l141.6,66.1c10.7,5,18.7,14.3,22.1,25.5
			c0.4,1.4,0.8,2.9,1.1,4.3c0,0,0,0,0,0c0.4,1.9,0.6,3.8,0.6,5.7c0,0,0,0,0,0c0.3,8.1-1.7,16.3-6.1,23.4
			c-7.8,12.7-21.3,19.8-35.2,19.8c-5.9,0-11.8-1.3-17.4-3.9L0,1727.1v15.9l157.6,73.6l0.1,0l4.5,2.1l0.1,0L458.5,1957l4.6,2.1
			l296.3,138.2l0,0l4.5,2.1l296.3,138.2l4.5,2.1l0,0l296.2,138.2l4.5,2.1l0.1,0l296.2,138.2l4.4,2l35.1,16.4v-73.5v-9.2V2448.8
			l2.7,1.3L1701.2,2448.8z"/>
		<path class="st7" d="M1319.7,1424.5c0.3,0.1,0.7,0.2,1,0.2c1,0,1.9-0.5,2.4-1.6c2.1-4.9,7.3-8.1,11.6-10.3
			c3.7-1.9,7.9-3.1,12.5-3.7c-0.1-1.7-0.2-3.4-0.3-5.1c-5.5,0.7-10.3,2.1-14.7,4.4c-5,2.6-11.2,6.5-13.9,12.8
			C1317.8,1422.5,1318.4,1423.9,1319.7,1424.5z"/>
		<path class="st7" d="M1083.9,1569.7C1083.9,1569.7,1083.9,1569.7,1083.9,1569.7c0.4,0.2,0.8,0.4,1.1,0.6c0.4,0.2,0.8,0.3,1.2,0.3
			c0.9,0,1.8-0.5,2.2-1.3c0.7-1.2,0.2-2.7-1-3.4c-0.3-0.2-0.6-0.3-0.9-0.5c0,0,0,0,0,0c-16.2-8.9-28.9-23.2-36.1-40.2
			c-0.5-1.3-2-1.9-3.3-1.4s-1.9,2-1.4,3.3C1053.3,1545.1,1066.8,1560.2,1083.9,1569.7z"/>
		<path class="st7" d="M1309.9,1520.8c0.1,0,0.2,0,0.3,0c1.3,0,2.3-0.9,2.5-2.3c0.2-1.3-0.8-2.6-2.2-2.8
			c-23-3.1-44.2-18.6-53.9-39.7c-0.6-1.2-2.1-1.8-3.4-1.2c-1.2,0.6-1.8,2.1-1.2,3.4C1262.5,1500.8,1285.2,1517.5,1309.9,1520.8z"/>
		<path class="st7" d="M1633.3,1464.9c-0.1,1.4,0.8,2.7,2.2,2.9c0.2,0,0.3,0,0.4,0c1.2,0,2.3-0.9,2.4-2.2c1.9-13.6-2.9-28-12.4-37.8
			c-1-1-2.6-1-3.6,0s-1,2.6,0,3.6C1630.8,1440.1,1635,1452.9,1633.3,1464.9z"/>
		<path class="st7" d="M1337.6,1440.4c-0.1-2.5,1.1-4.9,3-6.5c1.1-0.9,1.3-2.5,0.4-3.6c-0.9-1.1-2.5-1.3-3.6-0.4
			c-3.1,2.6-5,6.5-4.9,10.5c0,4,1.9,8.1,5.3,11.4c2.9,2.9,6.5,4.9,9.7,6.5c4.2,2.2,9.2,4.6,14.7,5.2c0.1,0,0.2,0,0.3,0
			c1.3,0,2.4-0.9,2.5-2.2c0.2-1.4-0.8-2.6-2.2-2.8c-4.2-0.4-8.2-2.2-12.9-4.6c-2.9-1.5-6.1-3.2-8.5-5.6
			C1339,1445.9,1337.6,1443,1337.6,1440.4z"/>
		<path class="st7" d="M1331.2,1471.5c0.3,0.1,0.5,0.1,0.8,0.1c1.1,0,2.1-0.6,2.5-1.8c0.5-1.3-0.3-2.8-1.6-3.2
			c-8.2-2.6-14.8-9.4-17.3-17.6c-0.4-1.3-1.9-2.1-3.2-1.7c-1.3,0.4-2.1,1.9-1.7,3.2C1313.6,1460.3,1321.5,1468.3,1331.2,1471.5z"/>
		<path class="st7" d="M1332.6,1487.7c-1.2-0.8-2.7-0.5-3.5,0.7s-0.5,2.7,0.7,3.5c8.1,5.2,17.4,8.1,27.1,8.4c1.4,0,2.5-1.1,2.6-2.4
			c0-1.4-1.1-2.6-2.5-2.6C1348.3,1495,1339.9,1492.4,1332.6,1487.7z"/>
		<path class="st7" d="M1367,1480.9c3.5,0.3,7,0.5,10.5,0.5c9.8,0,19.5-1.4,29.1-4.1c13.4-3.8,22.4-10,26.8-18.4
			c0.6-1.2,0.1-2.8-1.1-3.4c-1.2-0.6-2.8-0.1-3.4,1.1c-3.8,7.2-11.7,12.5-23.7,15.9c-12.1,3.4-25.2,4.5-37.7,3.3
			c-1.4-0.1-2.7,0.9-2.8,2.3C1364.6,1479.5,1365.6,1480.8,1367,1480.9z"/>
		<path class="st7" d="M1404,1460.6c0.2,0,0.3,0,0.5,0.1c6.9-1.2,12.1-3.5,15.9-7c5-4.7,7.1-11.6,5.1-17.3c-0.4-1.4-1.9-2.1-3.2-1.6
			c-1.4,0.4-2.1,1.9-1.6,3.2c1.3,3.7-0.3,8.6-3.8,11.9c-3,2.8-7.4,4.7-13.3,5.7c-1.4,0.2-2.3,1.5-2.1,2.9
			C1401.7,1459.7,1402.8,1460.6,1404,1460.6z"/>
		<path class="st7" d="M1415.1,1418.1c6.6,2.6,12.3,7.7,15.5,14.1c0.5,0.9,1.4,1.4,2.3,1.4c0.4,0,0.8-0.1,1.1-0.3
			c1.2-0.6,1.7-2.1,1.1-3.4c-3.7-7.5-10.4-13.6-18.2-16.6c-1.3-0.5-2.8,0.2-3.3,1.5S1413.8,1417.6,1415.1,1418.1z"/>
		<path class="st7" d="M1437.2,1409.7c0.2,0.4,0.6,0.7,1,0.9c9.6,5.1,20.3,17.8,20.9,29.5c0,1.4,1.2,2.4,2.5,2.4c0.1,0,0.1,0,0.2,0
			c1.4-0.1,2.5-1.3,2.4-2.7c-0.4-7.7-4.4-15.6-9.7-22.1c0,0-0.1-0.1-0.1-0.1c-4.1-4.9-9.1-9-13.9-11.5c-1.2-0.6-2.8-0.1-3.4,1.1
			C1436.7,1408,1436.8,1408.9,1437.2,1409.7C1437.2,1409.6,1437.2,1409.7,1437.2,1409.7z"/>
		<path class="st7" d="M510,1333.2h42c9.4,0,17.3-2.2,23.7-6.4c6.4-4.3,11-9.9,14-16.6s4.6-13.7,4.6-20.9s-1.6-14.2-4.6-20.9
			c-3-6.7-7.7-12.3-14-16.6c-6.3-4.3-14.2-6.4-23.7-6.4h-75.9v148H510V1333.2z M510,1275.9h37.9c2.8,0,5.1,0.7,7.1,2
			c1.9,1.3,3.3,3,4.3,5c0.9,2,1.4,4.1,1.4,6.4s-0.5,4.4-1.4,6.4c-0.9,1.9-2.3,3.6-4.3,5c-1.9,1.3-4.3,2-7.1,1.9H510V1275.9z"/>
		<path class="st7" d="M668.3,1329c-2,1.1-5.4,1.9-10.2,2.6l-2.7,0.4c-3.8,0.5-7.8,0.9-11.9,1.2c-3.3,0.3-6.7,0.7-10.6,1.2
			c-3.8,0.5-7.5,1.2-11.2,2c-7.4,1.7-13.5,4.9-18.1,9.5c-4.6,4.6-6.9,11.2-6.9,19.6c0,5.5,1.2,10.5,3.9,14.8
			c2.6,4.4,6.1,7.8,10.5,10.4s9,4.1,14,4.7c6.7,0.8,13.5,0.5,20.2-0.8c6.7-1.3,13-3.9,18.9-7.7c4-2.7,7.6-6.1,10.6-10.4
			c2.9-4.3,5.1-8.5,6.5-12.7h4.3c-1.1,1.9-2.1,4-2.9,6.7c-0.9,2.6-1.2,5.4-1.2,8.4c0,4.3,1.2,7.9,3.5,10.6c2.3,2.7,5.9,4,10.7,4
			h24.1v-30.6h-9.3c-1.4,0-2.6-0.5-3.7-1.6c-1-1.1-1.6-2.3-1.6-3.7v-30.4c0-6.6-1.9-13-5.5-18.9c-3.6-6-9.5-10.9-17.5-14.8
			c-8-3.9-18.2-5.8-30.4-5.8c-12.4,0-22.6,1.9-30.6,5.8s-14,8.8-17.7,14.9s-5.6,12.4-5.6,19h32.7c0-2.1,0.7-4,2.1-5.9
			s3.6-3.4,6.7-4.6s7-1.8,11.6-1.8c3.3,0,6.1,0.3,8.7,0.8c2.5,0.5,4.7,1.2,6.5,2.4c1.8,1.1,3,2.6,3.6,4.4
			C670.8,1325.9,670.2,1327.9,668.3,1329z M671.2,1344v4.3c0,1.7-0.1,3.4-0.2,5.3c-0.3,2.4-1.6,5-3.7,7.6c-2.2,2.6-5,4.8-8.5,6.5
			c-3.3,1.6-6.1,2.4-8.7,2.7c-2.6,0.3-5.6,0.3-9.1,0c-3.3-0.5-6.2-1.7-8.5-3.6c-2.3-1.9-3.5-4.3-3.5-7.2c0-2.9,1.5-5.5,4.3-7.6
			c2.9-2.1,6-3.4,9.4-3.8c4-0.5,7.9-1.1,11.9-1.5c4.3-0.5,7.8-1.1,10.8-1.5C668.3,1344.9,670.3,1344.4,671.2,1344z"/>
		<path class="st7" d="M730.3,1321.7c0.7,0.7,1.1,1.8,1.1,3.2v68.3h33.8v-28.9c0-7.2,1.5-14.1,4.4-20.7c3-6.6,7.7-12.1,14.2-16.4
			c6.4-4.3,14.7-6.4,24.5-6.4v-30.6c-7.9,0-15,1.7-21.6,5c-6.4,3.3-11.9,8.1-16.2,14c-4.3,6-7.6,12.9-9.7,20.8h-4.3
			c2.7-13.7,4-23.7,4-30c0-3.2-1.1-5.7-3.3-7.4c-2.2-1.7-5-2.6-8.5-2.6h-35.1v30.6h13.3C728.5,1320.7,729.6,1321,730.3,1321.7z"/>
		<polygon class="st7" points="846.8,1362.1 851.7,1362.1 884.7,1393.3 924.8,1393.6 876.8,1347.9 876.8,1343.6 923.4,1290.1 
			887,1290.1 851.1,1331.3 846.8,1331.3 846.8,1245.3 813,1245.3 813,1393.3 846.8,1393.3 		"/>
		<path class="st7" d="M913.7,1341.8c0,9,1.9,17.7,5.6,25.9c3.8,8.3,9.7,15.1,17.7,20.3c8,5.3,18.2,7.9,30.4,7.9
			c16.8,0,28.9-4,36.5-12.2c7.5-8.1,12.4-16.4,14.7-25.1h-33c-1.6,2.5-3.8,4.8-6.7,6.7c-2.9,1.9-6.7,2.9-11.6,2.9
			c-5,0-9-1.2-12.2-3.4c-3.2-2.2-5.5-4.8-7-7.6c-1.5-2.9-2.6-5.4-2.9-7.8h75.2c0.9-11.2-0.4-21.4-4-30.9c-3.7-9.5-9.7-17-18-22.7
			c-8.4-5.7-18.7-8.5-31.1-8.5c-12.3,0-22.3,2.6-30.4,7.9c-8.1,5.3-14,12.1-17.7,20.3C915.6,1324.1,913.7,1332.8,913.7,1341.8z
			 M949.8,1323.1c1.8-2.3,4.1-4.3,7-5.8c2.9-1.6,6.4-2.3,10.4-2.2c4.1,0,7.6,0.8,10.4,2.4c2.8,1.6,5,3.6,6.7,5.9
			c1.7,2.3,2.9,4.7,3.8,7.1l-42-0.2C946.8,1327.8,948,1325.5,949.8,1323.1z"/>
		<path class="st7" d="M1043.7,1387.8c7,5.4,15.6,8.1,25.9,8.1c9.1,0,16.2-1.6,21.5-4.7c5.3-3.1,9.5-6.9,12.6-11.4
			c0.4-0.5,0.9-1.2,1.2-1.7h4.3c-1.1,2.4-2.1,4.9-2.9,7.5c-0.9,2.6-1.2,5-1.2,7.3v0.4h33.8v-148H1105v34.7c0,9.2,1.5,17.6,4.3,25.4
			h-4.3c-3.4-4.9-7.7-9.1-12.7-12.6c-5-3.5-12.3-5.2-21.6-5.2c-10.7,0-19.6,2.6-26.8,7.9c-7.1,5.3-12.3,12.1-15.7,20.4
			c-3.3,8.4-5,16.9-5,25.8c0,8.8,1.6,17.5,5,25.7C1031.5,1375.6,1036.7,1382.4,1043.7,1387.8z M1064.2,1324.5
			c4.8-4.1,10.4-6.2,16.9-6.2s12.1,2,16.8,6.2c4.7,4.1,7.1,9.9,7.1,17.2s-2.3,13-7.1,17.2c-4.7,4.1-10.3,6.2-16.8,6.2
			c-6.5,0-12.1-2-16.9-6.2c-4.8-4.2-7.2-9.9-7.2-17.2C1056.9,1334.4,1059.4,1328.6,1064.2,1324.5z"/>
		<path class="st7" d="M795.7,1413l-12.7,33.3h5.4l3-8.3H805l2.9,8.3h5.6l-12.6-33.3H795.7z M793,1433.8l4-10.9l1.2-3.9h0.2l1.2,3.9
			l4,10.9H793z"/>
		<path class="st7" d="M835.2,1446.2v-15.4c0-2.9-0.8-5.1-2.3-6.7c-1.6-1.5-3.6-2.3-6.4-2.3c-1.6,0-3.1,0.4-4.5,1.2
			c-1.5,0.8-2.6,1.8-3.3,3h-0.2v-3.5h-4.8v23.8h5v-13.4c0-1.9,0.5-3.5,1.7-4.8c1.2-1.3,2.6-2,4.3-2c1.8,0,3.1,0.5,4,1.5
			c0.9,1,1.4,2.4,1.4,4.3v14.4H835.2z"/>
		<path class="st7" d="M885.7,1446.5v-33.3h-5v12.6h-0.2h-0.1c-0.7-1.2-1.8-2.2-3.2-2.9c-1.4-0.8-2.9-1.1-4.6-1.1
			c-3.3,0-6,1.2-8.1,3.6c-1.9,2.1-3,4.7-3.2,7.8c-0.2-3.1-1.4-5.7-3.5-7.8c-2.4-2.4-5.4-3.6-8.9-3.6s-6.6,1.2-8.9,3.6
			c-2.4,2.4-3.6,5.4-3.6,9.1c0,3.6,1.2,6.7,3.6,9.1c2.3,2.4,5.4,3.6,9,3.6c3.6,0,6.6-1.2,9-3.6c2.1-2.1,3.3-4.7,3.5-7.8
			c0.2,3.2,1.2,5.8,3.2,7.9c2.2,2.3,4.8,3.5,8.1,3.5c1.7,0,3.3-0.4,4.7-1.1c1.5-0.7,2.6-1.7,3.3-2.9h0.1v3.3H885.7z M854.2,1440.4
			c-1.5,1.6-3.3,2.3-5.4,2.3c-2.2,0-4-0.8-5.4-2.3c-1.5-1.6-2.2-3.5-2.2-6c0-2.4,0.7-4.4,2.2-5.9c1.5-1.6,3.3-2.2,5.4-2.2
			s3.9,0.8,5.4,2.2c1.5,1.5,2.2,3.5,2.2,6C856.3,1436.8,855.6,1438.8,854.2,1440.4z M878.6,1440.4c-1.4,1.6-3.1,2.3-5.1,2.3
			s-3.8-0.8-5.2-2.3c-1.4-1.6-2.1-3.6-2.1-6c0-2.4,0.7-4.4,2.1-5.9c1.4-1.6,3.1-2.2,5.2-2.2c2,0,3.7,0.8,5.1,2.2
			c1.4,1.6,2.1,3.5,2.1,5.9C880.7,1436.8,879.9,1438.8,878.6,1440.4z"/>
		<path class="st7" d="M910.3,1432.7c0-3.2-1.1-5.8-3.2-7.9c-2.3-1.9-5.1-3-8.5-3s-6.3,1.2-8.5,3.6c-2.2,2.4-3.3,5.4-3.3,9.1
			c0,3.7,1.2,6.7,3.4,9.1c2.2,2.4,5.2,3.6,8.8,3.6c1.7,0,3.3-0.2,4.4-0.6c1.2-0.4,2.3-1,3.4-1.8c1-0.8,2-2,2.9-3.6l-3.6-2.2
			c-0.8,1.1-1.5,1.9-2,2.4c-0.6,0.5-1.2,0.9-2,1.2c-0.8,0.3-1.6,0.4-2.6,0.4c-2.2,0-4-0.8-5.4-2.3c-1.2-1.3-1.9-3-2.1-5.2h18.5
			V1432.7z M891.9,1432c0.3-1.5,0.9-2.7,1.7-3.7c1.3-1.5,2.9-2.2,5-2.2c1.9,0,3.5,0.5,4.7,1.7c1.2,1.2,1.8,2.6,1.9,4.3H891.9z"/>
		<polygon class="st7" points="904.6,1411.7 899.5,1411.7 896.4,1418.6 900.6,1418.6 		"/>
		<path class="st7" d="M933.9,1441.1c-1.2,0.9-2.6,1.5-4.5,1.5c-1.2,0-2.2-0.2-3.2-0.6c-0.9-0.4-1.7-1-2.4-1.8
			c-0.6-0.8-1.4-2.1-2.2-4l-4.6,1.9c1,2.5,2,4.3,2.9,5.4c1,1.1,2.2,2,3.8,2.6c1.6,0.6,3.3,0.9,5.3,0.9c3.3,0,6.1-0.9,8.3-2.6
			c2.2-1.8,3.3-4.2,3.3-7.2c0-2.4-0.8-4.4-2.3-6.1c-1.6-1.8-4-3.2-7.2-4.3c-3.5-1.2-5.7-2.2-6.5-2.9c-0.9-0.9-1.2-1.8-1.2-2.9
			c0-1.3,0.5-2.3,1.6-3.1s2.3-1.2,4-1.2c1,0,1.9,0.2,2.6,0.5c0.8,0.3,1.5,0.7,2,1.3c0.6,0.5,1.2,1.4,1.7,2.5l4.5-1.9
			c-0.9-1.8-1.8-3.1-2.7-4c-0.9-0.9-2.1-1.6-3.4-2.1c-1.3-0.5-2.9-0.7-4.5-0.7c-3.2,0-5.7,0.9-7.8,2.6c-2,1.7-3,3.9-3,6.4
			c0,2.2,0.7,4.1,2.2,5.7c1.4,1.6,4,2.9,7.6,4.1c2.9,1,4.9,1.9,6,2.9c1.1,0.9,1.6,2.1,1.6,3.3
			C935.6,1438.9,935.1,1440.2,933.9,1441.1z"/>
		<path class="st7" d="M945.9,1445.2c1.2,1.2,2.9,1.9,5.1,1.9c0.6,0,1.2-0.1,1.7-0.1c0.5-0.1,1.2-0.2,2.2-0.5v-4.3
			c-0.9,0.3-1.6,0.5-1.9,0.5c-0.4-0.1-0.6,0-0.9,0c-1,0-1.8-0.3-2.2-0.9c-0.5-0.6-0.8-1.6-0.8-2.8v-12.3h5.8v-4.2H949v-6.6h-5v6.6
			h-4v4.2h4v13.3C944,1442.2,944.6,1444,945.9,1445.2z"/>
		<path class="st7" d="M977.5,1446.2v-23.8h-5v13.7c0,1.9-0.6,3.5-1.8,4.8c-1.2,1.3-2.6,2-4.4,2c-1.6,0-2.9-0.5-3.8-1.6
			s-1.3-2.5-1.3-4.4v-14.4h-5v15.2c0,3,0.8,5.3,2.3,6.9c1.6,1.6,3.7,2.4,6.5,2.4c1.6,0,3.2-0.4,4.6-1.2c1.4-0.8,2.5-1.8,3.1-2.9h0.2
			v3.3H977.5z"/>
		<path class="st7" d="M1003,1446.3V1413h-5v12.7h-0.1c-0.7-1.2-1.8-2.2-3.2-2.9c-1.4-0.8-2.9-1.1-4.6-1.1c-3.3,0-6,1.2-8.1,3.6
			c-2.2,2.3-3.3,5.4-3.3,9.1c0,3.7,1.1,6.7,3.2,9.1c2.2,2.3,4.8,3.5,8.1,3.5c1.7,0,3.3-0.4,4.7-1.1c1.5-0.7,2.6-1.7,3.3-2.9h0.1v3.3
			H1003z M996.1,1440.4c-1.4,1.6-3.1,2.3-5.1,2.3s-3.8-0.8-5.2-2.3c-1.4-1.6-2.1-3.6-2.1-6c0-2.4,0.7-4.4,2.1-5.9
			c1.4-1.6,3.1-2.2,5.2-2.2c2,0,3.7,0.8,5.1,2.2c1.4,1.6,2.1,3.5,2.1,5.9C998.2,1436.8,997.4,1438.8,996.1,1440.4z"/>
		<path class="st7" d="M1010.7,1412.7c-0.6-0.5-1.4-0.9-2.2-0.9s-1.6,0.3-2.2,0.9c-0.6,0.6-0.9,1.3-0.9,2.2c0,0.9,0.3,1.6,0.9,2.2
			c0.6,0.6,1.3,0.9,2.2,0.9c0.9,0,1.6-0.3,2.2-0.9c0.5-0.6,0.9-1.3,0.9-2.2C1011.6,1414,1011.3,1413.2,1010.7,1412.7z"/>
		<rect x="1005.9" y="1422.5" class="st7" width="5" height="23.8"/>
		<path class="st7" d="M1025.1,1421.7c-3.6,0-6.6,1.2-8.9,3.6c-2.4,2.4-3.6,5.4-3.6,9.1s1.2,6.7,3.6,9.1c2.3,2.4,5.4,3.6,9,3.6
			c3.6,0,6.6-1.2,9-3.6c2.3-2.4,3.6-5.4,3.6-9.1c-0.2-3.6-1.3-6.7-3.7-9.1C1031.6,1422.9,1028.6,1421.7,1025.1,1421.7z
			 M1030.4,1440.4c-1.5,1.6-3.3,2.3-5.4,2.3c-2.2,0-4-0.8-5.4-2.3c-1.5-1.6-2.2-3.5-2.2-6c0-2.4,0.7-4.4,2.2-5.9
			c1.5-1.6,3.3-2.2,5.4-2.2c2.1,0,3.9,0.8,5.4,2.2c1.5,1.5,2.2,3.5,2.2,6C1032.6,1436.8,1031.8,1438.8,1030.4,1440.4z"/>
		<path class="st7" d="M1040,1444.7c0.9,0.8,2,1.3,3.3,1.7c1.2,0.4,2.6,0.5,4.2,0.5c2.9,0,5.3-0.7,7.1-2.1c1.9-1.4,2.7-3.2,2.7-5.4
			c0-1.7-0.6-3.2-1.9-4.4c-1.3-1.1-3.5-2.1-6.7-2.8c-2.6-0.6-4.2-1.2-4.8-1.7c-0.6-0.5-0.9-1.2-0.9-1.9c0-0.7,0.4-1.4,1.2-1.9
			c0.8-0.5,1.9-0.8,3.1-0.8c0.8,0,1.5,0.1,2.2,0.2c0.7,0.2,1.2,0.5,1.8,0.8c0.5,0.4,1.2,1,1.9,1.9l3.6-2.2c-0.9-1.4-1.9-2.4-2.8-3
			c-0.9-0.6-1.9-1.1-2.9-1.4s-2.3-0.5-3.7-0.5c-2.6,0-4.8,0.6-6.6,1.9c-1.8,1.3-2.7,2.9-2.7,5c0,1.9,0.7,3.4,2.1,4.7
			s3.6,2.2,6.7,2.9c2.4,0.5,3.9,1,4.6,1.6c0.7,0.5,1,1.2,1,2c0,1-0.4,1.9-1.2,2.3c-0.9,0.5-1.9,0.8-3.4,0.8c-1,0-1.9-0.2-2.7-0.4
			c-0.8-0.2-1.4-0.6-2-1.1c-0.6-0.5-1.3-1.4-2.2-2.7l-3.8,2.2C1038,1442.7,1039,1443.9,1040,1444.7z"/>
		<path class="st7" d="M1072,1432.2c-0.2,0.2-0.4,0.2-0.6,0.3c-0.2,0.1-0.5,0.1-0.7,0.1c-0.5,0-1.1-0.2-1.5-0.6
			c-0.4-0.5-0.6-1-0.6-1.7s0.2-1.2,0.6-1.6s0.9-0.6,1.5-0.6c0.2,0,0.5,0,0.7,0.1c0.2,0.1,0.4,0.2,0.5,0.3c0.2,0.2,0.3,0.4,0.5,0.8
			l1.6-0.6c-0.3-0.6-0.6-1.1-0.9-1.3c-0.3-0.2-0.7-0.5-1.1-0.6s-0.9-0.2-1.3-0.2c-1.2,0-2.1,0.4-2.8,1.1c-0.7,0.7-1.1,1.6-1.1,2.8
			c0,1.2,0.4,2.1,1.1,2.8s1.6,1.1,2.8,1.1c0.5,0,1-0.1,1.4-0.2c0.5-0.2,0.8-0.4,1.1-0.6c0.3-0.3,0.6-0.7,0.9-1.3l-1.6-0.5
			C1072.4,1431.8,1072.2,1432.1,1072,1432.2z"/>
		<path class="st7" d="M1075.7,1435.4c1.4-1.4,2.1-3,2.1-5c0-2-0.7-3.6-2.1-5c-1.5-1.4-3.1-2.1-5.1-2.1c-2,0-3.7,0.7-5.1,2.1
			s-2.1,3-2.1,5c0,2,0.7,3.6,2.1,5s3.1,2.1,5.1,2.1C1072.6,1437.5,1074.3,1436.8,1075.7,1435.4z M1066.6,1434.2
			c-1-1.1-1.6-2.3-1.6-3.9s0.5-2.8,1.6-3.9c1-1.1,2.3-1.6,3.9-1.6c1.6,0,2.8,0.5,3.9,1.6c1.1,1.1,1.6,2.3,1.6,3.9
			c0.1,1.5-0.5,2.8-1.6,3.9c-1.1,1.1-2.3,1.6-3.9,1.6C1069,1435.9,1067.7,1435.3,1066.6,1434.2z"/>
		<path class="st7" d="M1092.2,1443h-9.6l-0.2-0.3l5.7-6.1c1.2-1.3,2.2-2.6,2.8-3.6c0.6-1.2,0.9-2.3,0.9-3.4c0-1.9-0.6-3.4-1.9-4.6
			c-1.2-1.2-2.9-1.7-4.8-1.7c-1.2,0-2.2,0.2-2.9,0.5c-0.8,0.3-1.5,0.8-2.1,1.3c-0.6,0.5-1.2,1.6-2,3.1l2.9,1.3c0.5-1,1-1.6,1.4-1.9
			c0.4-0.3,0.7-0.6,1.2-0.8c0.4-0.2,0.9-0.2,1.5-0.2c1.1,0,1.9,0.3,2.5,0.9c0.6,0.6,0.9,1.4,0.9,2.4c0,0.8-0.2,1.6-0.6,2.4
			c-0.5,0.8-1.2,1.8-2.2,2.9l-7.4,7.9v3h14V1443z"/>
		<path class="st7" d="M1101.4,1423.2c-2.6,0-4.7,1.1-6.3,3.2s-2.3,4.9-2.3,8.3c0,3.4,0.8,6.2,2.3,8.4c1.6,2.2,3.6,3.2,6.3,3.2
			c2.6,0,4.7-1.1,6.3-3.2c1.6-2.2,2.3-4.9,2.3-8.4c0-3.4-0.8-6.2-2.3-8.3S1104,1423.2,1101.4,1423.2z M1105.3,1440.9
			c-0.9,1.5-2.2,2.2-3.9,2.2c-1.6,0-2.9-0.8-3.8-2.2c-0.9-1.5-1.4-3.6-1.4-6.1s0.5-4.7,1.4-6.1c0.9-1.5,2.2-2.2,3.8-2.2
			s2.9,0.8,3.9,2.2c0.9,1.5,1.4,3.5,1.4,6.1C1106.6,1437.3,1106.2,1439.4,1105.3,1440.9z"/>
		<path class="st7" d="M1118.1,1435.2l-7.4,7.9v3h14v-3.1h-9.6l-0.2-0.3l5.7-6.1c1.2-1.3,2.2-2.6,2.8-3.6c0.6-1.2,0.9-2.3,0.9-3.4
			c0-1.9-0.6-3.4-1.9-4.6c-1.2-1.2-2.9-1.7-4.8-1.7c-1.2,0-2.2,0.2-2.9,0.5c-0.8,0.3-1.5,0.8-2.1,1.3c-0.6,0.5-1.2,1.6-2,3.1
			l2.9,1.3c0.5-1,1-1.6,1.4-1.9c0.4-0.3,0.7-0.6,1.2-0.8c0.4-0.2,0.9-0.2,1.5-0.2c1.1,0,1.9,0.3,2.5,0.9c0.6,0.6,0.9,1.4,0.9,2.4
			c0,0.8-0.2,1.6-0.6,2.4C1119.8,1433.1,1119.1,1434.1,1118.1,1435.2z"/>
		<path class="st7" d="M1134.1,1423.2l-5.1,7.1c-1.1,1.5-2,2.9-2.8,4.3s-1.1,2.8-1.1,4.3c0,2.2,0.7,4,2.2,5.4
			c1.5,1.4,3.3,2.1,5.5,2.1s4-0.7,5.5-2.2c1.5-1.5,2.2-3.3,2.2-5.4c0.1-2.1-0.5-3.8-1.9-5c-1.3-1.3-2.9-1.9-4.8-1.9
			c-0.8,0-1.5,0.1-2.2,0.3l5.2-7.1L1134.1,1423.2z M1133,1434.5c1.2,0,2.2,0.4,3.1,1.2c0.8,0.8,1.2,1.9,1.2,3
			c-0.1,1.3-0.5,2.3-1.2,3.2c-0.8,0.8-1.9,1.2-3.1,1.2s-2.3-0.4-3.2-1.2c-0.9-0.8-1.2-1.9-1.2-3.1s0.4-2.2,1.2-3.1
			C1130.6,1435,1131.7,1434.5,1133,1434.5z"/>
	</g>
</g>
</svg>
