<?xml version="1.0" encoding="utf-8"?>
<!-- Generator: Adobe Illustrator 27.6.1, SVG Export Plug-In . SVG Version: 6.00 Build 0)  -->
<svg version="1.1" id="Layer_1" xmlns="http://www.w3.org/2000/svg" xmlns:xlink="http://www.w3.org/1999/xlink" x="0px" y="0px"
	 viewBox="0 0 1920 1080" style="enable-background:new 0 0 1920 1080;" xml:space="preserve">
<style type="text/css">
	.st0{fill:#999999;}
	.st1{fill:#DFB584;}
</style>
<g>
	<path class="st0" d="M505.8,483.1h-54.5v100.2c0,26,18.8,26.5,54.5,24.6v56.4c-85.3,9.6-116.6-14.9-116.6-81V483.1h-41.9v-59.8
		h41.9v-48.7l62.2-18.8v67.5h54.5L505.8,483.1L505.8,483.1z"/>
	<path class="st0" d="M569.9,569.4c8.2,30.4,30.8,45.3,67.9,45.3c23.6,0,41.9-8.2,54-24.1l50.1,28.9
		c-23.6,34.2-58.8,51.6-105.1,51.6c-40,0-71.8-12-95.9-36.1c-24.1-24.1-36.1-54.5-36.1-91.1c0-36.1,12.1-66.5,35.7-90.6
		c23.6-24.6,54.4-36.6,91.6-36.6c35.2,0,64.6,12,87.2,36.6c23.1,24.6,34.7,54.4,34.7,90.6c0,8.2-1,16.4-2.4,25.5L569.9,569.4
		L569.9,569.4z M691.8,521.2c-7.2-32.8-31.3-48.7-59.8-48.7c-33.2,0-55.9,17.8-63.1,48.7H691.8z M703.9,325.1l-53.5,66h-59.8
		l38.5-66H703.9z"/>
	<path class="st0" d="M761.2,664.3V312.6h62.2v351.8h-62.2V664.3z"/>
	<path class="st0" d="M1003.1,423.4h62.2v240.9h-62.2v-27c-14.9,22.7-39,33.7-71.8,33.7c-26.5,0-48.2-8.7-65.5-26.5
		c-16.9-17.8-25.5-41.9-25.5-73.2v-148h62.2v140.2c0,32.3,18.8,49.6,47.7,49.6c32.3,0,53-19.8,53-59.8L1003.1,423.4L1003.1,423.4z"
		/>
	<path class="st0" d="M1270.6,423.4h60.7v229.4c0,37.1-12.5,65.5-37.1,85.3s-54,29.4-88.7,29.4c-52,0-93-20.2-114.2-58.8l53-30.4
		c12.1,22.7,33.2,33.7,63.1,33.7c39,0,63.1-21.2,63.1-59.3v-26c-18.3,24.6-43.8,36.6-77.1,36.6c-34.2,0-62.6-12-85.8-35.7
		c-22.7-24.1-34.2-53.5-34.2-87.7s11.6-63.1,34.7-87.2s51.6-36.1,85.3-36.1c33.2,0,58.8,12,77.1,36.6L1270.6,423.4L1270.6,423.4z
		 M1251.3,493.3c-12.5-12.5-28.4-18.8-48.2-18.8s-35.7,6.3-48.7,18.8c-12.5,12-18.8,28-18.8,46.7c0,38.5,28.4,66,67.5,66
		c39,0,67.5-27.5,67.5-66C1270.6,521.2,1264.3,505.3,1251.3,493.3z"/>
	<path class="st0" d="M1510.5,423.4h62.2v240.9h-62.2v-27c-14.9,22.7-39,33.7-71.8,33.7c-26.5,0-48.2-8.7-65.5-26.5
		c-16.9-17.8-25.5-41.9-25.5-73.2v-148h62.2v140.2c0,32.3,18.8,49.6,47.7,49.6c32.3,0,53-19.8,53-59.8L1510.5,423.4L1510.5,423.4z"
		/>
</g>
<g>
	<path class="st0" d="M1612.7,414.6c7.6,0,14,2.7,19.4,8s8,11.8,8,19.4s-2.7,14-8,19.4s-11.8,8-19.4,8s-14.1-2.7-19.4-8
		s-8-11.8-8-19.4s2.7-14,8-19.4C1598.6,417.3,1605.1,414.6,1612.7,414.6z M1612.6,420c-6.1,0-11.3,2.1-15.6,6.4
		c-4.3,4.3-6.4,9.4-6.4,15.5s2.1,11.3,6.4,15.6c4.3,4.3,9.5,6.4,15.6,6.4s11.3-2.1,15.6-6.4c4.3-4.3,6.5-9.5,6.5-15.6
		s-2.1-11.3-6.4-15.5C1623.9,422.2,1618.7,420,1612.6,420z M1619.2,446l5.8,2c-1.9,6.1-5.9,9.2-12,9.2c-4.3,0-7.6-1.4-10.1-4.1
		s-3.7-6.4-3.7-10.9c0-4.7,1.2-8.4,3.7-11.2c2.5-2.8,5.9-4.2,10.2-4.2c5.9,0,9.9,2.9,11.9,8.7l-5.8,1.4c-1.2-3.3-3.4-5-6.4-5
		c-4.9,0-7.4,3.4-7.4,10.1c0,3.1,0.6,5.6,1.8,7.4c1.2,1.8,3,2.8,5.3,2.8C1615.8,452.2,1618.1,450.1,1619.2,446z"/>
</g>
<g>
	<path class="st1" d="M862.3,725.5c0-3.9-1.3-6.9-3.8-8.9c-1-0.8-2.1-1.4-3.4-1.9c2.2-1.9,3.3-4.4,3.3-7.7c0-2-0.5-3.9-1.4-5.7
		s-2.4-3.3-4.5-4.4c-2.1-1.1-4.8-1.7-8.1-1.7h-26.8c-1.1,0-2.1,0.3-2.9,0.8c-0.8,0.5-1.2,1.4-1.2,2.8c0,0.7,0.1,1.3,0.3,1.9
		c0.2,0.6,0.4,1,0.7,1.4h29.3c1.9,0,3.4,0.5,4.5,1.4s1.6,2.2,1.6,3.9c0,1.6-0.5,2.9-1.5,3.9c-1,1-2.4,1.6-4.2,1.6h-13
		c-1.1,0-2,0.3-2.7,0.8c-0.8,0.5-1.1,1.4-1.1,2.7c0,0.8,0.1,1.4,0.3,2c0.2,0.6,0.4,1,0.7,1.4h18.6c2.7,0,4.6,0.5,5.7,1.5
		c1.1,1,1.6,2.3,1.6,4.1c0,0.7-0.1,1.4-0.2,1.9c-1-0.2-2.1-0.3-3.2-0.3c-2.8,0-5.2,0.6-7.2,1.8c-2,1.2-3.5,2.7-4.6,4.6
		c-1.1,1.9-1.6,3.9-1.6,6c0,2.4,0.5,4.6,1.6,6.4c1.1,1.8,2.6,3.2,4.5,4.2c1.9,1,4,1.5,6.4,1.5c1.8,0,3.5-0.4,5.2-1.2
		c0.4-0.2,0.8-0.4,1.2-0.7c-0.7,2.2-1.8,4.1-3.2,5.9c-2.2,2.5-5,4.5-8.3,5.8c-3.4,1.4-7,2-11.1,2c-4,0-7.6-0.7-11-2
		c-3.4-1.3-6.1-3.3-8.3-5.8c-1.4-1.7-2.5-3.6-3.2-5.6c0.3,0.1,0.5,0.3,0.8,0.4c1.9,0.8,3.7,1.2,5.5,1.2c2.4,0,4.6-0.5,6.5-1.5
		c1.9-1,3.4-2.4,4.5-4.2c1.1-1.8,1.6-4,1.6-6.4c0-2.1-0.5-4.1-1.6-6c-1.1-1.9-2.6-3.4-4.6-4.6c-2-1.2-4.5-1.8-7.3-1.8
		c-3.9,0-7.2,1.4-10,4c-2.8,2.7-4.2,6.6-4.2,11.7c0,5.3,1.3,10,3.8,14.3c2.5,4.2,6.2,7.6,10.9,10.1c4.7,2.5,10.3,3.7,16.7,3.7
		c6.5,0,12.1-1.2,16.8-3.7c4.7-2.5,8.3-5.8,10.9-10.1c2.5-4.2,3.8-9,3.8-14.3c0-5.1-1.4-9-4.1-11.7
		C861.9,729.5,862.3,727.7,862.3,725.5z M820.5,735.5c1.1,1.1,1.6,2.5,1.6,4.1c0,1.6-0.5,3-1.6,4.1c-1.1,1.1-2.4,1.7-4.1,1.7
		c-1.8,0-3.2-0.6-4.2-1.7c-1-1.2-1.6-2.5-1.6-4.1c0-1.6,0.5-3,1.6-4.1s2.4-1.7,4.2-1.7C818,733.8,819.4,734.4,820.5,735.5z
		 M851.3,745.5c-1.8,0-3.2-0.6-4.2-1.7c-1-1.2-1.6-2.5-1.6-4.1c0-1.6,0.5-2.9,1.6-4.1c1-1.2,2.4-1.7,4.2-1.7c1.7,0,3.1,0.6,4.1,1.7
		c1.1,1.1,1.6,2.5,1.6,4.1c0,1.6-0.5,3-1.6,4.1C854.3,744.9,853,745.5,851.3,745.5z"/>
	<path class="st1" d="M965.4,721.6c-2.4-2.5-5-4.3-7.6-5.6c-2.6-1.2-4.9-1.8-7-1.8c-1.7,0-2.9,0.4-3.7,1.3c-0.8,0.9-1.1,2-1.1,3.3
		c0,0.2,0,0.4,0,0.7s0,0.6,0.1,0.9c3,0.4,6,1.6,8.8,3.4c2.9,1.8,5.3,4.4,7.1,7.7c1.9,3.3,2.8,7.4,2.8,12.2c0,6.3-1.5,11-4.6,14.3
		c-3.1,3.3-7,4.9-11.9,4.9c-3.6,0-6.9-0.8-9.7-2.5c-1.5-0.9-2.8-1.9-4-3.1c0.3-0.4,0.5-0.8,0.8-1.2c2.8-4.6,4.1-10.1,4.1-16.3
		c0-4.1-0.5-7.8-1.6-11c-1.1-3.2-2.4-5.8-4-8c-1.6-2.2-3.4-3.8-5.2-4.9c-1.9-1.1-3.5-1.7-5-1.7s-2.7,0.5-3.5,1.6
		c-0.8,1-1.3,2.3-1.4,3.8c2,0.9,3.9,2.2,5.7,4c1.8,1.8,3.3,4,4.4,6.7c1.1,2.7,1.6,5.9,1.6,9.6c0,4.3-0.9,8.2-2.8,11.7
		c-1.9,3.5-4.6,6.3-8.1,8.3c-3.5,2-7.8,3.1-12.8,3.1c-4.8,0-9.1-1-12.9-3.1c-3.8-2.1-6.8-5-8.9-8.8c-2.2-3.8-3.2-8.2-3.2-13.2
		c0-0.1,0-0.1,0-0.2c0.5,0.7,1.1,1.3,1.8,1.9c1.3,1.1,2.8,1.8,4.4,2.3c1.6,0.4,3.2,0.7,4.7,0.7c2.9,0,5.4-0.6,7.4-1.8
		c2.1-1.2,3.7-2.9,4.8-5c1.2-2.1,1.7-4.5,1.7-7.2c0-2.4-0.6-4.7-1.8-6.9c-1.2-2.2-2.9-4-5.2-5.4c-2.3-1.4-5.1-2.1-8.3-2.1
		c-3.2,0-6.2,0.9-8.9,2.6c-2.7,1.7-4.9,4.3-6.5,7.7c-1.6,3.4-2.4,7.7-2.4,12.9c0,7.1,1.5,13.1,4.4,18.1c2.9,5,6.9,8.7,12,11.3
		c5,2.6,10.7,3.9,17,3.9c6.5,0,12.2-1.3,17.1-3.8c2.1-1.1,3.9-2.3,5.6-3.7c1.9,1.9,4.1,3.5,6.7,4.7c3.6,1.9,8,2.8,13.2,2.8
		c5,0,9.4-1.1,13-3.4c3.7-2.3,6.5-5.4,8.5-9.5c2-4,3-8.6,3-13.8c0-5-0.8-9.4-2.4-13.1C969.8,727.2,967.8,724.1,965.4,721.6z
		 M896.1,723.6c1.3,1.4,1.9,3,1.9,5c0,1.9-0.6,3.6-1.9,4.9c-1.3,1.3-3,2-5.2,2c-2.1,0-3.8-0.7-5.1-2c-1.3-1.3-1.9-3-1.9-4.9
		c0-2,0.6-3.7,1.9-5c1.3-1.3,3-2,5.1-2C893.1,721.6,894.8,722.2,896.1,723.6z"/>
	<path class="st1" d="M1070.3,730.9c-1.6-3.7-3.6-6.8-6-9.3c-2.4-2.5-4.9-4.3-7.6-5.6c-2.6-1.2-5-1.8-7.1-1.8
		c-1.6,0-2.8,0.4-3.6,1.3c-0.8,0.9-1.2,2-1.2,3.3c0,0.2,0,0.4,0,0.7s0,0.6,0.1,0.9c3.1,0.4,6,1.6,8.9,3.4c2.9,1.8,5.2,4.4,7.1,7.7
		c1.9,3.3,2.8,7.4,2.8,12.2c0,6.3-1.5,11-4.4,14.3c-2.9,3.3-6.6,4.9-11.2,4.9c-3,0-5.6-0.7-8-2c-1-0.6-1.9-1.2-2.7-1.9
		c0.1-0.3,0.2-0.5,0.3-0.8c1.3-3.8,1.9-8,1.9-12.8c0-5.1-0.8-9.6-2.3-13.5c-1.5-3.8-3.6-7-6.2-9.6c-2.6-2.6-5.6-4.5-8.9-5.8
		c-1-0.4-2-0.7-3-1c1.3-1.3,2.8-2.9,4.6-4.8c2.4-2.6,5.5-6,9.3-10.1c1.1-1.1,1.8-2,2.3-2.7s0.7-1.5,0.7-2.4c0-1.3-0.5-2.4-1.6-3.2
		c-1-0.8-2.4-1.3-4.2-1.4l-2.7,3.1c-2.6,2.9-5,5.6-7.1,8.1c-2.1,2.5-3.9,4.8-5.5,6.9c-1.5,2-2.8,3.8-3.8,5.3c-2.6-3-4.7-5.4-6.3-7.2
		s-2.9-3.1-4-3.9c-1.1-0.8-2.2-1.2-3.4-1.2c-1.4,0-2.6,0.5-3.4,1.6c-0.8,1.1-1.3,2.3-1.3,3.6c3.8,3.5,6.8,6.1,9,8
		c0.3,0.2,0.5,0.4,0.7,0.6c-0.6,0.2-1.2,0.4-1.8,0.6c-3.4,1.3-6.3,3.3-8.9,5.8c-2.6,2.6-4.7,5.8-6.2,9.6c-1.5,3.8-2.3,8.3-2.3,13.5
		c0,4.8,0.6,9,1.9,12.8c1.3,3.8,2.9,6.7,4.8,8.9s3.7,3.2,5.6,3.2c1.4,0,2.4-0.4,3.2-1.2c0.8-0.8,1.3-1.7,1.5-2.5
		c-1.9-1.8-3.7-4.5-5.4-8c-1.7-3.5-2.5-7.9-2.5-13.1c0-5.3,0.9-9.6,2.6-13.1c1.8-3.5,4.1-6.1,7-7.9c2.9-1.8,6.1-2.7,9.5-2.7
		s6.5,0.9,9.5,2.7c2.9,1.8,5.3,4.4,7,7.9c1.8,3.5,2.6,7.9,2.6,13.1c0,5.2-0.8,9.6-2.5,13.1c-1.7,3.5-3.5,6.2-5.4,8
		c0.3,0.9,0.9,1.8,1.6,2.6c0.8,0.8,1.8,1.2,3.1,1.2c1.9,0,3.7-1.1,5.6-3.2c0.3-0.3,0.6-0.7,0.9-1.1c1.3,0.9,2.6,1.7,4,2.4
		c3.2,1.5,7,2.3,11.4,2.3c4.8,0,8.9-1.1,12.4-3.4c3.5-2.3,6.2-5.4,8.1-9.5c1.9-4,2.9-8.6,2.9-13.8
		C1072.7,739,1071.9,734.6,1070.3,730.9z"/>
</g>
</svg>
